<svg width="1188" height="795.33" xmlns="http://www.w3.org/2000/svg" data-name="Layer 1">
 <defs>
  <linearGradient id="b951b20a-1330-40a2-8498-70064fea6747" x1="0.5" y1="1.00002" x2="0.5" y2="0">
   <stop offset="0" stop-color="#00bfa6"/>
   <stop offset="1" stop-color="#3f3d56"/>
  </linearGradient>
  <linearGradient id="a09f8209-a7b7-4999-9a81-8afbf160c3ae" x1="0.50025" y1="1.0001" x2="0.50025" y2="0.00001">
   <stop offset="0" stop-color="gray" stop-opacity="0.25"/>
   <stop offset="0.54" stop-color="gray" stop-opacity="0.12"/>
   <stop offset="1" stop-color="gray" stop-opacity="0.1"/>
  </linearGradient>
 </defs>
 <title>dreamer</title>
 <g>
  <title>Layer 1</title>
  <path d="m1136.29,356.1q-7,-9.82 -14.87,-19a278.6,278.6 0 0 0 -96.83,-72.77a273.46,273.46 0 0 0 -31.27,-11.93q-11.1,-3.48 -22.58,-6l-14.44,-2.83a278.45,278.45 0 0 0 -209.12,49q-10.77,-1.31 -21.8,-1.75c-0.28,-0.77 -0.57,-1.54 -0.87,-2.32q-3.68,-9.74 -7.89,-19.2a374.37,374.37 0 0 0 -62.4,-96.88c-1.18,-1.32 -2.36,-2.64 -3.56,-3.94a378,378 0 0 0 -56.56,-50.57a373.18,373.18 0 0 0 -219.24,-71.24l-0.53,0q-8.76,0 -17.41,0.41l-22.27,1.68c-1.83,0.19 -3.66,0.39 -5.48,0.62l0,0l-22.51,3.4q-8.94,1.62 -17.73,3.69a375.19,375.19 0 0 0 -203.13,126.05q-9.48,11.43 -18,23.63c-2.71,3.86 -5.35,7.75 -7.9,11.71c-1.23,1.9 -2.44,3.8 -3.64,5.72q-5.94,9.51 -11.26,19.39q-5.67,10.47 -10.68,21.32a1.42,1.42 0 0 0 -0.08,0.18a370.54,370.54 0 0 0 -24.73,72.49l0,0q-2.27,9.84 -4,19.86q-0.68,3.84 -1.26,7.7l-0.12,0.86c-1,7 -1.89,14 -2.54,21.13l-0.87,0.08c0.07,0.21 0.14,0.42 0.19,0.64a6.45,6.45 0 0 0 0.58,0.31c-0.08,0.91 -0.15,1.82 -0.22,2.72a8.61,8.61 0 0 1 -0.19,2.41q-1.08,14 -1.08,28.34a372.42,372.42 0 0 0 42.54,173.46l0.39,0.74a375.84,375.84 0 0 0 119.64,134.46a372,372 0 0 0 132.13,57.17l8.27,1.69q17.14,3.32 34.83,5q18,1.74 36.53,1.75a376.28,376.28 0 0 0 51.33,-3.5l440.39,0l3.58,0.55a277.83,277.83 0 0 0 266.66,-436.28l0,0.05z" fill="url(#b951b20a-1330-40a2-8498-70064fea6747)" id="svg_1"/>
  <path d="m989,560.95l0,0c-0.05,-3.27 -0.16,-6.5 -0.34,-9.74q-0.32,-6.1 -0.89,-12.15a274.18,274.18 0 0 0 -5.43,-34c-0.11,-0.5 -0.23,-1 -0.35,-1.51q-3,-12.95 -7.17,-25.43q-2.82,-8.38 -6.15,-16.45l0,0q-1.18,-2.91 -2.44,-5.75a271.5,271.5 0 0 0 -13,-26l0,0l-0.63,-1.1c-1.45,-2.52 -3,-5 -4.48,-7.51l0,0l-0.61,-1c-0.29,-0.47 -0.58,-0.87 -0.83,-1.32l0,-0.06q-2.94,-4.67 -6.06,-9.19a276.24,276.24 0 0 0 -21.3,-27.1l0,0a277.85,277.85 0 0 0 -37.09,-34.58s0,0 0,0c-3.33,-2.55 -6.7,-5.05 -10.15,-7.47c0,0 0,0 0,0a273.4,273.4 0 0 0 -124.78,-47.88q-10.77,-1.31 -21.8,-1.75c-1.81,-0.08 -3.62,-0.13 -5.43,-0.16c-2,-0.06 -4,-0.07 -6,-0.07a278.73,278.73 0 0 0 -35.12,2.22a274.07,274.07 0 0 0 -57.06,13.62a275.22,275.22 0 0 0 -237.89,-136.9a271.16,271.16 0 0 0 -29.36,1.57c-1.08,0.09 -2.16,0.22 -3.24,0.35a273.83,273.83 0 0 0 -39.17,7.55c-3.82,-6.28 -7.89,-12.43 -12.2,-18.38s-8.69,-11.59 -13.37,-17.09q-6,-7 -12.38,-13.62a5.55,5.55 0 0 0 -0.42,-0.42a273.79,273.79 0 0 0 -20.94,-19.36c-3.9,-3.26 -7.89,-6.42 -12,-9.44q-7.71,-5.76 -15.83,-10.94q-5.7,-3.66 -11.58,-7a376.23,376.23 0 0 0 -127.71,99.63q-9.48,11.43 -18,23.63c-2.71,3.86 -5.35,7.75 -7.9,11.71c-1.23,1.9 -2.44,3.8 -3.64,5.72q-5.94,9.51 -11.26,19.39q-5.67,10.47 -10.68,21.32a1.42,1.42 0 0 0 -0.08,0.18a370.54,370.54 0 0 0 -24.73,72.49l0,0q-2.27,9.84 -4,19.86q-0.68,3.84 -1.26,7.7l-0.12,0.86c-1,7 -1.89,14 -2.54,21.13l-0.87,0.08c0.07,0.21 0.14,0.42 0.19,0.64a6.45,6.45 0 0 0 0.58,0.31c-0.08,0.91 -0.15,1.82 -0.22,2.72a8.61,8.61 0 0 1 -0.19,2.41q-1.08,14 -1.08,28.34a372.42,372.42 0 0 0 42.54,173.46c0.33,0.05 0.67,0.1 1,0.13l0,0a276.23,276.23 0 0 0 105.21,-7.46q4.68,7.72 9.86,15.1q3.83,5.48 7.92,10.74a276.34,276.34 0 0 0 83.15,71.69c1.41,0.8 2.84,1.57 4.27,2.34a270.73,270.73 0 0 0 40.05,17.54q8,2.79 16.31,5.09c0.31,0.08 0.62,0.18 0.93,0.25a272.89,272.89 0 0 0 53.13,9q9.72,0.71 19.62,0.71a278,278 0 0 0 44.34,-3.56a271.65,271.65 0 0 0 27.18,-5.87l0,0q10.5,-2.81 20.65,-6.43q2.85,4.89 5.89,9.64a271.45,271.45 0 0 0 22.95,30.96q6.29,7.38 13.11,14.29a276,276 0 0 0 39.45,33.2l308.49,0l3.58,0.55a277.57,277.57 0 0 0 40.27,-33.71a274.3,274.3 0 0 0 75.1,-146.31q1.37,-8 2.27,-16.06a277.48,277.48 0 0 0 1.73,-30.63c0,-1.6 0,-3.16 0,-4.72z" fill="#00bfa6" opacity="0.3" id="svg_2"/>
  <path d="m1188,517.54a278.29,278.29 0 0 1 -139.71,241.13l-541.46,0q-1,-7.15 -1.81,-14.29c-0.43,-3.56 -0.83,-7.11 -1.21,-10.67c-0.66,-6.18 -1.24,-12.41 -1.69,-18.69c-2.4,-33.62 -1,-68 12.4,-98.09a118.7,118.7 0 0 1 5.68,-11.26a124.72,124.72 0 0 1 10.45,-15.37a139.73,139.73 0 0 1 11,-12.23a166.74,166.74 0 0 1 16.71,-14.4c2.81,-2.13 5.7,-4.2 8.64,-6.19l0.54,-0.36c15.07,-10.14 31.65,-18.44 48.35,-25.52l3.46,-1.44l0.9,-0.37c1.63,-0.68 3.26,-1.33 4.89,-2l0.65,-0.26q13.21,-5.26 26.61,-9.76q22.76,-7.67 46.17,-13.19q5.82,-1.38 11.68,-2.61q5.67,-1.21 11.37,-2.28q12.61,-2.4 25.32,-4.16c0.88,-0.12 1.75,-0.24 2.63,-0.34l5.54,-0.73l1,-0.12c1.59,-0.2 3.19,-0.38 4.79,-0.56c6.53,-0.75 13.07,-1.39 19.61,-2c0,0 0,0 0,0c0.26,0 0.51,0 0.76,-0.09l0.06,0q10.39,-0.88 20.8,-1.64l4.86,-0.36l4,-0.28q11.88,-0.84 23.76,-1.68c6.42,-0.49 12.83,-1 19.24,-1.57c1.09,-0.09 2.17,-0.18 3.26,-0.29l2.21,-0.21a4.07,4.07 0 0 0 0.6,-0.06l0.28,0l3.71,-0.37a1.66,1.66 0 0 1 0.22,0l0,0c1.07,-0.1 2.12,-0.21 3.18,-0.33c8.5,-0.88 17,-1.92 25.44,-3.19l2.58,-0.38a363.89,363.89 0 0 0 43.37,-9.38q4.88,-1.39 9.7,-2.94q5.53,-1.79 11,-3.8l1.54,-0.57c2.54,-1 5.06,-2 7.56,-3l0,0c3.64,-1.5 7.24,-3.11 10.78,-4.8l0.46,-0.21q6.32,-3 12.4,-6.44c1.88,-1.06 3.75,-2.16 5.59,-3.29a177.11,177.11 0 0 0 26.26,-19.32c0.62,-0.56 1.23,-1.11 1.83,-1.67l0.2,-0.18a273.09,273.09 0 0 0 22.42,-24c9.94,-11.68 19.56,-23.69 30.53,-34.38q4.8,-4.68 10,-9c4,-3.3 8.08,-6.41 12.32,-9.33l0.63,-0.44a181.25,181.25 0 0 1 19.36,-11.57q7.85,9.17 14.87,19a276.44,276.44 0 0 1 51.71,161.53z" fill="#00bfa6" id="svg_3"/>
  <path d="m1188,517.54a278.29,278.29 0 0 1 -139.71,241.13l-541.46,0q-1,-7.15 -1.81,-14.29c-0.43,-3.56 -0.83,-7.11 -1.21,-10.67c-0.66,-6.18 -1.24,-12.41 -1.69,-18.69c-2.4,-33.62 -1,-68 12.4,-98.09a118.7,118.7 0 0 1 5.68,-11.26a124.72,124.72 0 0 1 10.45,-15.37a139.73,139.73 0 0 1 11,-12.23a166.74,166.74 0 0 1 16.71,-14.4c2.81,-2.13 5.7,-4.2 8.64,-6.19l0.54,-0.36c15.07,-10.14 31.65,-18.44 48.35,-25.52l3.46,-1.44l0.9,-0.37c1.63,-0.68 3.26,-1.33 4.89,-2l0.65,-0.26q13.21,-5.26 26.61,-9.76q22.76,-7.67 46.17,-13.19q5.82,-1.38 11.68,-2.61q5.67,-1.21 11.37,-2.28q12.61,-2.4 25.32,-4.16c0.88,-0.12 1.75,-0.24 2.63,-0.34l5.54,-0.73l1,-0.12c1.59,-0.2 3.19,-0.38 4.79,-0.56c6.53,-0.75 13.07,-1.39 19.61,-2c0,0 0,0 0,0c0.26,0 0.51,0 0.76,-0.09l0.06,0q10.39,-0.88 20.8,-1.64l4.86,-0.36l4,-0.28q11.88,-0.84 23.76,-1.68c6.42,-0.49 12.83,-1 19.24,-1.57c1.09,-0.09 2.17,-0.18 3.26,-0.29l2.21,-0.21a4.07,4.07 0 0 0 0.6,-0.06l0.28,0l3.71,-0.37a1.66,1.66 0 0 1 0.22,0l0,0c1.07,-0.1 2.12,-0.21 3.18,-0.33c8.5,-0.88 17,-1.92 25.44,-3.19l2.58,-0.38a363.89,363.89 0 0 0 43.37,-9.38q4.88,-1.39 9.7,-2.94q5.53,-1.79 11,-3.8l1.54,-0.57c2.54,-1 5.06,-2 7.56,-3l0,0c3.64,-1.5 7.24,-3.11 10.78,-4.8l0.46,-0.21q6.32,-3 12.4,-6.44c1.88,-1.06 3.75,-2.16 5.59,-3.29a177.11,177.11 0 0 0 26.26,-19.32c0.62,-0.56 1.23,-1.11 1.83,-1.67l0.2,-0.18a273.09,273.09 0 0 0 22.42,-24c9.94,-11.68 19.56,-23.69 30.53,-34.38q4.8,-4.68 10,-9c4,-3.3 8.08,-6.41 12.32,-9.33l0.63,-0.44a181.25,181.25 0 0 1 19.36,-11.57q7.85,9.17 14.87,19a276.44,276.44 0 0 1 51.71,161.53z" opacity="0.2" id="svg_4"/>
  <ellipse cx="197.29" cy="504.78" rx="5.41" ry="7.09" fill="#3f3d56" id="svg_5"/>
  <ellipse cx="197.29" cy="496.12" rx="5.41" ry="7.09" fill="#3f3d56" id="svg_6"/>
  <ellipse cx="197.29" cy="487.46" rx="5.41" ry="7.09" fill="#3f3d56" id="svg_7"/>
  <ellipse cx="197.29" cy="478.8" rx="5.41" ry="7.09" fill="#3f3d56" id="svg_8"/>
  <ellipse cx="197.29" cy="470.14" rx="5.41" ry="7.09" fill="#3f3d56" id="svg_9"/>
  <ellipse cx="197.29" cy="461.48" rx="5.41" ry="7.09" fill="#3f3d56" id="svg_10"/>
  <ellipse cx="197.29" cy="452.82" rx="5.41" ry="7.09" fill="#3f3d56" id="svg_11"/>
  <path d="m217.55,393.55a26.3,26.3 0 0 0 2,-3l-14.22,-2.33l15.38,0.11a26,26 0 0 0 0.49,-20.54l-20.64,10.7l19,-14a25.93,25.93 0 1 0 -42.83,29a25.91,25.91 0 0 0 -3,4.73l18.47,9.59l-19.69,-6.61a25.93,25.93 0 0 0 4.18,24.35a25.93,25.93 0 1 0 40.76,0a25.92,25.92 0 0 0 0,-32.06l0.1,0.06z" fill="#00bfa6" id="svg_12"/>
  <path d="m171.24,409.58a25.85,25.85 0 0 0 5.55,16a25.93,25.93 0 1 0 40.76,0c3.45,-4.38 -46.31,-18.91 -46.31,-16z" opacity="0.03" id="svg_13"/>
  <ellipse cx="254.29" cy="527.78" rx="5.41" ry="7.09" fill="#3f3d56" id="svg_14"/>
  <ellipse cx="254.29" cy="519.12" rx="5.41" ry="7.09" fill="#3f3d56" id="svg_15"/>
  <ellipse cx="254.29" cy="510.46" rx="5.41" ry="7.09" fill="#3f3d56" id="svg_16"/>
  <ellipse cx="254.29" cy="501.8" rx="5.41" ry="7.09" fill="#3f3d56" id="svg_17"/>
  <ellipse cx="254.29" cy="493.14" rx="5.41" ry="7.09" fill="#3f3d56" id="svg_18"/>
  <ellipse cx="254.29" cy="484.48" rx="5.41" ry="7.09" fill="#3f3d56" id="svg_19"/>
  <ellipse cx="254.29" cy="475.82" rx="5.41" ry="7.09" fill="#3f3d56" id="svg_20"/>
  <path d="m274.55,416.55a26.3,26.3 0 0 0 2,-3l-14.22,-2.33l15.38,0.11a26,26 0 0 0 0.49,-20.54l-20.64,10.7l19,-14a25.93,25.93 0 1 0 -42.83,29a25.91,25.91 0 0 0 -3,4.73l18.47,9.59l-19.69,-6.61a25.93,25.93 0 0 0 4.18,24.35a25.93,25.93 0 1 0 40.76,0a25.92,25.92 0 0 0 0,-32.06l0.1,0.06z" fill="#00bfa6" id="svg_21"/>
  <path d="m228.24,432.58a25.85,25.85 0 0 0 5.55,16a25.93,25.93 0 1 0 40.76,0c3.45,-4.38 -46.31,-18.91 -46.31,-16z" opacity="0.03" id="svg_22"/>
  <ellipse cx="621.29" cy="548.78" rx="5.41" ry="7.09" fill="#3f3d56" id="svg_23"/>
  <ellipse cx="621.29" cy="540.12" rx="5.41" ry="7.09" fill="#3f3d56" id="svg_24"/>
  <ellipse cx="621.29" cy="531.46" rx="5.41" ry="7.09" fill="#3f3d56" id="svg_25"/>
  <ellipse cx="621.29" cy="522.8" rx="5.41" ry="7.09" fill="#3f3d56" id="svg_26"/>
  <ellipse cx="621.29" cy="514.14" rx="5.41" ry="7.09" fill="#3f3d56" id="svg_27"/>
  <ellipse cx="621.29" cy="505.48" rx="5.41" ry="7.09" fill="#3f3d56" id="svg_28"/>
  <ellipse cx="621.29" cy="496.82" rx="5.41" ry="7.09" fill="#3f3d56" id="svg_29"/>
  <path d="m641.55,437.55a26.3,26.3 0 0 0 2,-3l-14.22,-2.33l15.38,0.11a26,26 0 0 0 0.49,-20.54l-20.64,10.7l19,-14a25.93,25.93 0 1 0 -42.83,29a25.91,25.91 0 0 0 -3,4.73l18.47,9.59l-19.69,-6.61a25.93,25.93 0 0 0 4.18,24.35a25.93,25.93 0 1 0 40.76,0a25.92,25.92 0 0 0 0,-32.06l0.1,0.06z" fill="#00bfa6" id="svg_30"/>
  <path d="m595.24,453.58a25.85,25.85 0 0 0 5.55,16a25.93,25.93 0 1 0 40.76,0c3.45,-4.38 -46.31,-18.91 -46.31,-16z" opacity="0.03" id="svg_31"/>
  <ellipse cx="678.29" cy="583.78" rx="5.41" ry="7.09" fill="#3f3d56" id="svg_32"/>
  <ellipse cx="678.29" cy="575.12" rx="5.41" ry="7.09" fill="#3f3d56" id="svg_33"/>
  <ellipse cx="678.29" cy="566.46" rx="5.41" ry="7.09" fill="#3f3d56" id="svg_34"/>
  <ellipse cx="678.29" cy="557.8" rx="5.41" ry="7.09" fill="#3f3d56" id="svg_35"/>
  <ellipse cx="678.29" cy="549.14" rx="5.41" ry="7.09" fill="#3f3d56" id="svg_36"/>
  <ellipse cx="678.29" cy="540.48" rx="5.41" ry="7.09" fill="#3f3d56" id="svg_37"/>
  <ellipse cx="678.29" cy="531.82" rx="5.41" ry="7.09" fill="#3f3d56" id="svg_38"/>
  <path d="m698.55,472.55a26.3,26.3 0 0 0 2,-3l-14.22,-2.33l15.38,0.11a26,26 0 0 0 0.49,-20.54l-20.64,10.7l19,-14a25.93,25.93 0 1 0 -42.83,29a25.91,25.91 0 0 0 -3,4.73l18.47,9.59l-19.69,-6.61a25.93,25.93 0 0 0 4.18,24.35a25.93,25.93 0 1 0 40.76,0a25.92,25.92 0 0 0 0,-32.06l0.1,0.06z" fill="#00bfa6" id="svg_39"/>
  <path d="m652.24,488.58a25.85,25.85 0 0 0 5.55,16a25.93,25.93 0 1 0 40.76,0c3.45,-4.38 -46.31,-18.91 -46.31,-16z" opacity="0.03" id="svg_40"/>
  <ellipse cx="736.29" cy="628.78" rx="5.41" ry="7.09" fill="#3f3d56" id="svg_41"/>
  <ellipse cx="736.29" cy="620.12" rx="5.41" ry="7.09" fill="#3f3d56" id="svg_42"/>
  <ellipse cx="736.29" cy="611.46" rx="5.41" ry="7.09" fill="#3f3d56" id="svg_43"/>
  <ellipse cx="736.29" cy="602.8" rx="5.41" ry="7.09" fill="#3f3d56" id="svg_44"/>
  <ellipse cx="736.29" cy="594.14" rx="5.41" ry="7.09" fill="#3f3d56" id="svg_45"/>
  <ellipse cx="736.29" cy="585.48" rx="5.41" ry="7.09" fill="#3f3d56" id="svg_46"/>
  <ellipse cx="736.29" cy="576.82" rx="5.41" ry="7.09" fill="#3f3d56" id="svg_47"/>
  <path d="m756.55,517.55a26.3,26.3 0 0 0 2,-3l-14.22,-2.33l15.38,0.11a26,26 0 0 0 0.49,-20.54l-20.64,10.7l19,-14a25.93,25.93 0 1 0 -42.83,29a25.91,25.91 0 0 0 -3,4.73l18.47,9.59l-19.69,-6.61a25.93,25.93 0 0 0 4.18,24.35a25.93,25.93 0 1 0 40.76,0a25.92,25.92 0 0 0 0,-32.06l0.1,0.06z" fill="#00bfa6" id="svg_48"/>
  <path d="m710.24,533.58a25.85,25.85 0 0 0 5.55,16a25.93,25.93 0 1 0 40.76,0c3.45,-4.38 -46.31,-18.91 -46.31,-16z" opacity="0.03" id="svg_49"/>
  <ellipse cx="781.29" cy="550.78" rx="5.41" ry="7.09" fill="#3f3d56" id="svg_50"/>
  <ellipse cx="781.29" cy="542.12" rx="5.41" ry="7.09" fill="#3f3d56" id="svg_51"/>
  <ellipse cx="781.29" cy="533.46" rx="5.41" ry="7.09" fill="#3f3d56" id="svg_52"/>
  <ellipse cx="781.29" cy="524.8" rx="5.41" ry="7.09" fill="#3f3d56" id="svg_53"/>
  <ellipse cx="781.29" cy="516.14" rx="5.41" ry="7.09" fill="#3f3d56" id="svg_54"/>
  <ellipse cx="781.29" cy="507.48" rx="5.41" ry="7.09" fill="#3f3d56" id="svg_55"/>
  <ellipse cx="781.29" cy="498.82" rx="5.41" ry="7.09" fill="#3f3d56" id="svg_56"/>
  <path d="m801.55,439.55a26.3,26.3 0 0 0 2,-3l-14.22,-2.33l15.38,0.11a26,26 0 0 0 0.49,-20.54l-20.64,10.7l19,-14a25.93,25.93 0 1 0 -42.83,29a25.91,25.91 0 0 0 -3,4.73l18.47,9.59l-19.69,-6.61a25.93,25.93 0 0 0 4.18,24.35a25.93,25.93 0 1 0 40.76,0a25.92,25.92 0 0 0 0,-32.06l0.1,0.06z" fill="#00bfa6" id="svg_57"/>
  <path d="m755.24,455.58a25.85,25.85 0 0 0 5.55,16a25.93,25.93 0 1 0 40.76,0c3.45,-4.38 -46.31,-18.91 -46.31,-16z" opacity="0.03" id="svg_58"/>
  <ellipse cx="1112.29" cy="441.78" rx="5.41" ry="7.09" fill="#3f3d56" id="svg_59"/>
  <ellipse cx="1112.29" cy="433.12" rx="5.41" ry="7.09" fill="#3f3d56" id="svg_60"/>
  <ellipse cx="1112.29" cy="424.46" rx="5.41" ry="7.09" fill="#3f3d56" id="svg_61"/>
  <ellipse cx="1112.29" cy="415.8" rx="5.41" ry="7.09" fill="#3f3d56" id="svg_62"/>
  <ellipse cx="1112.29" cy="407.14" rx="5.41" ry="7.09" fill="#3f3d56" id="svg_63"/>
  <ellipse cx="1112.29" cy="398.48" rx="5.41" ry="7.09" fill="#3f3d56" id="svg_64"/>
  <ellipse cx="1112.29" cy="389.82" rx="5.41" ry="7.09" fill="#3f3d56" id="svg_65"/>
  <path d="m1138.1,378.67c0,0.39 0,0.8 0,1.18s0,0.51 0,0.76s0,0.38 0,0.57s0,0.31 0,0.46s-0.07,0.55 -0.11,0.83c0,0.11 0,0.22 0,0.34c0,0.3 -0.1,0.57 -0.16,0.86a4.91,4.91 0 0 1 -0.1,0.5c-0.07,0.37 -0.16,0.72 -0.26,1.08s-0.19,0.73 -0.3,1.07a21.41,21.41 0 0 1 -0.89,2.44c-0.16,0.4 -0.33,0.78 -0.52,1.16s-0.34,0.69 -0.52,1s-0.29,0.54 -0.44,0.8s-0.3,0.5 -0.47,0.75s-0.12,0.2 -0.19,0.31s-0.28,0.43 -0.42,0.63s-0.09,0.13 -0.15,0.2c-0.17,0.26 -0.36,0.52 -0.56,0.77a26.1,26.1 0 0 1 -3.31,3.59c-0.26,0.24 -0.52,0.46 -0.79,0.68l-0.09,0.07l-0.71,0.57l-0.38,0.27c-0.23,0.18 -0.48,0.35 -0.72,0.51a24.37,24.37 0 0 1 -3.58,2.05a8.94,8.94 0 0 1 -1,0.43c-0.32,0.14 -0.64,0.27 -1,0.38s-0.41,0.17 -0.62,0.23l-0.36,0.13l-1,0.28l-1,0.27a2.57,2.57 0 0 1 -0.38,0.08l-0.85,0.18c-0.62,0.13 -1.24,0.24 -1.87,0.31l-0.1,0c-0.22,0 -0.45,0.06 -0.67,0.07a6.83,6.83 0 0 1 -0.78,0.06l-0.51,0c-0.35,0 -0.71,0 -1.07,0s-0.7,0 -1,0l-0.39,0a6.48,6.48 0 0 1 -0.77,-0.06a4.62,4.62 0 0 1 -0.64,-0.06l0,0c-0.65,-0.07 -1.29,-0.15 -1.92,-0.28c-0.34,-0.06 -0.67,-0.14 -1,-0.22a0.59,0.59 0 0 1 -0.22,-0.05a26.17,26.17 0 0 1 -4.1,-1.33a22.52,22.52 0 0 1 -2.1,-1c-0.32,-0.17 -0.65,-0.35 -1,-0.54l-0.7,-0.43c-0.46,-0.28 -0.91,-0.59 -1.35,-0.91c-0.18,-0.13 -0.36,-0.26 -0.54,-0.41a3.8,3.8 0 0 1 -0.38,-0.29c-0.19,-0.16 -0.38,-0.3 -0.57,-0.47a0.47,0.47 0 0 1 -0.15,-0.13c-0.25,-0.2 -0.49,-0.43 -0.73,-0.64a25.91,25.91 0 0 1 -2.29,-2.4c-0.24,-0.28 -0.47,-0.57 -0.69,-0.85s-0.32,-0.42 -0.46,-0.63s-0.24,-0.33 -0.35,-0.49s-0.31,-0.45 -0.46,-0.69s-0.37,-0.6 -0.55,-0.9c-0.36,-0.6 -0.69,-1.22 -1,-1.85c-0.14,-0.29 -0.27,-0.57 -0.39,-0.87c-0.23,-0.5 -0.44,-1 -0.63,-1.57c-0.14,-0.36 -0.26,-0.73 -0.37,-1.1s-0.24,-0.8 -0.34,-1.21a0.08,0.08 0 0 1 0,-0.05c-0.09,-0.36 -0.18,-0.73 -0.25,-1.08s-0.13,-0.62 -0.17,-0.93s-0.1,-0.56 -0.14,-0.84a1.5,1.5 0 0 1 0,-0.22c-0.06,-0.33 -0.09,-0.68 -0.12,-1s-0.07,-0.78 -0.08,-1.16s0,-0.79 0,-1.19a25.85,25.85 0 0 1 5.55,-16c-0.44,-0.56 -0.86,-1.13 -1.24,-1.72c-0.13,-0.19 -0.25,-0.37 -0.36,-0.56s-0.33,-0.54 -0.48,-0.81s-0.37,-0.64 -0.55,-1a0.41,0.41 0 0 1 -0.05,-0.09a22.28,22.28 0 0 1 -0.94,-2c-0.1,-0.24 -0.19,-0.47 -0.28,-0.7c-0.25,-0.67 -0.47,-1.34 -0.67,-2a23.08,23.08 0 0 1 -0.55,-2.39c-0.05,-0.24 -0.09,-0.49 -0.12,-0.73a0.11,0.11 0 0 1 0,-0.06c0,-0.24 -0.08,-0.47 -0.11,-0.71c-0.07,-0.57 -0.12,-1.16 -0.15,-1.75c0,-0.17 0,-0.33 0,-0.5c0,-0.32 0,-0.63 0,-0.94a26,26 0 0 1 1.37,-8.31l19.69,6.61l-18.47,-9.61a26.17,26.17 0 0 1 3,-4.72a26,26 0 0 1 -3.48,-26.2a279.07,279.07 0 0 1 33.11,32.75q7.85,9.17 14.87,19a25.55,25.55 0 0 1 -3.66,6.41l-0.08,0.1a25.79,25.79 0 0 1 5.33,15.91z" fill="#00bfa6" id="svg_66"/>
  <path d="m1086.24,346.58a25.85,25.85 0 0 0 5.55,16a25.93,25.93 0 1 0 40.76,0c3.45,-4.38 -46.31,-18.91 -46.31,-16z" opacity="0.03" id="svg_67"/>
  <path d="m654.22,172.46q-17.22,5.76 -34.82,10.31q15.61,-7.31 31.26,-14.25c1.2,1.3 2.34,2.62 3.56,3.94z" fill="#00bfa6" opacity="0.3" id="svg_68"/>
  <path d="m356.92,47.09q8.65,-0.42 17.41,-0.41l0.53,0c-7.12,4.69 -14.28,9.19 -21.49,13.41c-1.81,1 -3.62,2.1 -5.44,3.11q-2.06,1.17 -4.12,2.29q-16.24,8.85 -32.7,17.21q-12.5,6.34 -25.09,12.38q-16.45,7.88 -33.1,15.19c-26.92,11.79 -54.08,22.4 -81.52,31.51q34.75,-21 69.55,-41q24.65,-14.11 49.36,-27.8q2.69,-1.5 5.37,-3q18.06,-10 36.18,-19.74l2.79,-1.51l22.27,-1.64z" fill="#00bfa6" opacity="0.3" id="svg_69"/>
  <path d="m716.62,269.34q4.21,9.46 7.89,19.2c-1.52,0.73 -3,1.44 -4.56,2.16c-35.17,16.41 -70.72,31.21 -106.55,44.07q32.73,-21.33 65.48,-41.92q18.86,-11.87 37.74,-23.51z" fill="#00bfa6" opacity="0.3" id="svg_70"/>
  <path d="m727.83,759.67c-0.18,-24.58 -3.56,-48.81 -13.35,-70.74a118.7,118.7 0 0 0 -5.68,-11.26a124.6,124.6 0 0 0 -10.29,-15.16a133.22,133.22 0 0 0 -9.43,-10.71a171.54,171.54 0 0 0 -27.08,-22.34c-16.25,-11 -34.28,-19.86 -52.35,-27.32a518,518 0 0 0 -69,-23q-4.18,-1.06 -8.39,-2.08c-0.87,-0.22 -1.74,-0.42 -2.62,-0.63l-2.83,-0.65l0,0c-1.62,-0.38 -3.22,-0.73 -4.84,-1.09q-7.24,-1.59 -14.52,-3q-12.61,-2.4 -25.32,-4.16c-18.32,-2.52 -36.76,-4.09 -55.21,-5.44l-8.89,-0.64l0,0q-11.88,-0.84 -23.76,-1.68c-7.93,-0.6 -15.85,-1.23 -23.76,-2l-1.91,-0.1l-3.71,-0.37c-3.28,-0.34 -6.57,-0.68 -9.85,-1.06q-9.51,-1.08 -19,-2.49q-10.55,-1.57 -21.06,-3.7l-1.15,-0.24c-1.86,-0.38 -3.72,-0.79 -5.57,-1.2c-1.1,-0.24 -2.19,-0.49 -3.28,-0.75q-10.08,-2.37 -20,-5.36a260.19,260.19 0 0 1 -27.17,-9.87q-4.43,-1.89 -8.76,-4l-1.18,-0.59a185.54,185.54 0 0 1 -45.1,-30.31l-1.13,-1l-2.4,-2.3c-1.41,-1.37 -2.79,-2.78 -4.15,-4.19s-2.63,-2.75 -3.93,-4.15c-7.55,-8.17 -14.61,-16.83 -21.83,-25.34c-6.25,-7.35 -12.61,-14.58 -19.51,-21.32c-1.27,-1.24 -2.56,-2.44 -3.87,-3.63a169.64,169.64 0 0 0 -19.01,-15.13c-0.94,-0.65 -1.89,-1.28 -2.84,-1.9q-5.62,-3.72 -11.53,-7c-3.85,-2.14 -7.79,-4.14 -11.79,-6q-8,-3.72 -16.27,-6.69a204.16,204.16 0 0 0 -28.61,-7.93a206.59,206.59 0 0 0 -42.69,-4.18l0,0c-4.22,0.05 -8.44,0.22 -12.63,0.55l-0.87,0.08c0.07,0.21 0.14,0.42 0.19,0.64a6.45,6.45 0 0 0 0.58,0.31c-0.08,0.91 -0.15,1.82 -0.22,2.72a8.61,8.61 0 0 1 -0.18,2.4q-1.08,14 -1.08,28.34a372.42,372.42 0 0 0 42.54,173.46l0.39,0.74a375.84,375.84 0 0 0 119.64,134.46a372,372 0 0 0 132.13,57.17l8.27,1.69q17.14,3.32 34.83,5q18,1.74 36.53,1.75a376.28,376.28 0 0 0 51.33,-3.5l301.76,0c0.92,-10.96 1.49,-22.11 1.41,-33.11z" fill="#3f3d56" id="svg_71"/>
  <path d="m574.05,126.14a18.21,18.21 0 0 0 -10.55,1.15a15.54,15.54 0 0 1 -12.65,0a17.76,17.76 0 0 0 -14.89,0.29a9.3,9.3 0 0 1 -4.29,1.07c-6,0 -11.06,-6.08 -12.1,-14.1a11.45,11.45 0 0 0 3,-3.25c3.53,-5.7 9,-9.36 15.17,-9.36s11.57,3.61 15.11,9.25a11.63,11.63 0 0 0 10,5.51l0.15,0c4.86,-0.03 9,3.82 11.05,9.44z" fill="#00bfa6" opacity="0.1" id="svg_72"/>
  <path d="m594.1,117.95c-1.83,6.29 -6.25,10.74 -11.4,10.74a9.21,9.21 0 0 1 -4.24,-1.05a17.76,17.76 0 0 0 -14.76,-0.29a15.68,15.68 0 0 1 -6.3,1.34a15.48,15.48 0 0 1 -4.84,-0.79c-0.26,-0.07 -0.53,-0.18 -0.79,-0.27s-0.49,-0.19 -0.73,-0.3a0.49,0.49 0 0 0 -0.19,-0.07a7.52,7.52 0 0 0 -0.78,-0.32c-0.25,-0.1 -0.5,-0.18 -0.75,-0.27a17.68,17.68 0 0 0 -13.17,0.94a9.27,9.27 0 0 1 -4.28,1.08a8.39,8.39 0 0 1 -2.4,-0.35c-0.11,0 -0.21,-0.06 -0.32,-0.08s-0.24,-0.07 -0.36,-0.12c-4.65,-1.67 -8.23,-7.06 -9,-13.75a23.08,23.08 0 0 1 -0.18,-2.91c0,-9.51 5.5,-17.21 12.3,-17.21l0.33,0a11.35,11.35 0 0 0 10,-5.4a18,18 0 0 1 1.29,-1.86a374.17,374.17 0 0 1 50.57,30.94z" fill="#00bfa6" opacity="0.1" id="svg_73"/>
  <path d="m71.05,263.49a17.64,17.64 0 0 0 -3.49,-0.32a17.89,17.89 0 0 0 -7.06,1.5c-0.22,0.09 -0.44,0.19 -0.67,0.27a15.46,15.46 0 0 1 -5.62,1.06a15.74,15.74 0 0 1 -4.65,-0.71c-0.26,-0.09 -0.53,-0.18 -0.79,-0.29s-0.62,-0.23 -0.92,-0.37l-0.78,-0.32l-0.75,-0.26a17.86,17.86 0 0 0 -12,0.27q5,-10.86 10.68,-21.32a21.78,21.78 0 0 1 4.9,5.55a11.66,11.66 0 0 0 10,5.5l0.15,0a8.85,8.85 0 0 1 1.71,0.17a9.86,9.86 0 0 1 3,1.11s0,0 0,0a15.21,15.21 0 0 1 6.29,8.16z" fill="#00bfa6" opacity="0.1" id="svg_74"/>
  <path d="m92,248.83c0,9.5 -5.51,17.2 -12.3,17.2a9.21,9.21 0 0 1 -4.24,-1.05a16.76,16.76 0 0 0 -7.85,-1.74a18,18 0 0 0 -6.91,1.43c-0.31,0.13 -0.61,0.26 -0.93,0.37a15.38,15.38 0 0 1 -5.37,1a15.65,15.65 0 0 1 -4.26,-0.59l-0.58,-0.18c-0.26,-0.09 -0.53,-0.18 -0.79,-0.29a7.49,7.49 0 0 1 -0.77,-0.31l-0.19,-0.07c-0.26,-0.12 -0.51,-0.21 -0.78,-0.32l-0.75,-0.26l-0.69,-0.2a17.71,17.71 0 0 0 -11.42,0.65a1.42,1.42 0 0 1 0.08,-0.18q5,-10.86 10.68,-21.32q5.34,-9.87 11.26,-19.39c1.2,-1.92 2.41,-3.82 3.64,-5.72a18.8,18.8 0 0 1 7.79,5.71l-3.73,6.78l5.91,-3.75a11.69,11.69 0 0 0 5.79,4.39l-1.42,2.59l3.31,-2.11a11.31,11.31 0 0 0 2,0.16l0.16,0a9.64,9.64 0 0 1 5.9,2.1l-4,7.35l-1.88,3.43l8,-5.06l1.78,-1.13a9,9 0 0 1 0.45,0.88a22.07,22.07 0 0 1 2.11,9.63z" fill="#00bfa6" opacity="0.1" id="svg_75"/>
  <ellipse cx="988.81" cy="549.5" rx="35.79" ry="46.85" fill="#2f2e41" id="svg_76"/>
  <ellipse cx="988.81" cy="492.23" rx="35.79" ry="46.85" fill="#2f2e41" id="svg_77"/>
  <ellipse cx="988.81" cy="434.97" rx="35.79" ry="46.85" fill="#2f2e41" id="svg_78"/>
  <ellipse cx="988.81" cy="377.71" rx="35.79" ry="46.85" fill="#2f2e41" id="svg_79"/>
  <ellipse cx="988.81" cy="320.44" rx="35.79" ry="46.85" fill="#2f2e41" id="svg_80"/>
  <path d="m956.3,243.57a58.94,58.94 0 0 0 -3.3,19.62a56.47,56.47 0 0 0 7.46,28.63c6.54,11.08 16.8,18.22 28.33,18.22s21.78,-7.14 28.33,-18.22a56.29,56.29 0 0 0 7.45,-27.49a273.41,273.41 0 0 0 -31.27,-11.92q-11.1,-3.48 -22.58,-6l-14.42,-2.84z" fill="#2f2e41" id="svg_81"/>
  <path d="m970.74,246.38q11.47,2.54 22.58,6a28.1,28.1 0 0 1 -4.51,0.37a29.5,29.5 0 0 1 -18.07,-6.37z" fill="#2f2e41" id="svg_82"/>
  <ellipse cx="321.81" cy="541.5" rx="35.79" ry="46.85" fill="#3f3d56" id="svg_83"/>
  <ellipse cx="321.81" cy="484.23" rx="35.79" ry="46.85" fill="#3f3d56" id="svg_84"/>
  <ellipse cx="321.81" cy="426.97" rx="35.79" ry="46.85" fill="#3f3d56" id="svg_85"/>
  <ellipse cx="321.81" cy="369.71" rx="35.79" ry="46.85" fill="#3f3d56" id="svg_86"/>
  <ellipse cx="321.81" cy="312.44" rx="35.79" ry="46.85" fill="#3f3d56" id="svg_87"/>
  <ellipse cx="321.81" cy="255.18" rx="35.79" ry="46.85" fill="#3f3d56" id="svg_88"/>
  <ellipse cx="321.81" cy="197.92" rx="35.79" ry="46.85" fill="#3f3d56" id="svg_89"/>
  <ellipse cx="321.81" cy="152.5" rx="35.79" ry="46.85" fill="#3f3d56" id="svg_90"/>
  <path d="m306.65,52.79a39.72,39.72 0 0 0 -13.17,13.82a48.46,48.46 0 0 0 -3.17,6.37a58.37,58.37 0 0 0 -4.29,22.1l0,0.16a56.47,56.47 0 0 0 7.46,28.63c6.54,11.08 16.8,18.22 28.33,18.22s21.78,-7.14 28.33,-18.22a58.67,58.67 0 0 0 0,-57.26c-0.7,-1.18 -1.44,-2.32 -2.21,-3.41a35.93,35.93 0 0 0 -16.07,-12.93a25.66,25.66 0 0 0 -2.69,-0.89l0,0l-22.52,3.41z" fill="#3f3d56" id="svg_91"/>
  <path d="m329.16,49.38l0,0q2.73,-0.33 5.48,-0.62l22.27,-1.67a56.16,56.16 0 0 1 -3.55,13a50.7,50.7 0 0 1 -3.23,6.52c-6.55,11.08 -16.8,18.22 -28.33,18.22a28,28 0 0 1 -10.7,-2.13a36.23,36.23 0 0 1 -15.43,-12.69c-0.77,-1.09 -1.51,-2.22 -2.2,-3.4a51,51 0 0 1 -4.56,-10.13q8.79,-2.07 17.73,-3.69l22.52,-3.41z" fill="#3f3d56" id="svg_92"/>
  <ellipse cx="91.81" cy="400.5" rx="35.79" ry="46.85" fill="#3f3d56" id="svg_93"/>
  <ellipse cx="91.81" cy="343.23" rx="35.79" ry="46.85" fill="#3f3d56" id="svg_94"/>
  <ellipse cx="91.81" cy="285.97" rx="35.79" ry="46.85" fill="#3f3d56" id="svg_95"/>
  <path d="m127.6,228.67a56.5,56.5 0 0 1 -7.46,28.63c-6.55,11.08 -16.8,18.23 -28.33,18.23c-9.33,0 -17.82,-4.68 -24.2,-12.33l0,-0.07a43.53,43.53 0 0 1 -4.08,-5.83c-0.61,-1 -1.18,-2.07 -1.72,-3.15a57.65,57.65 0 0 1 -5.81,-25.48q0,-2.6 0.21,-5.13c1.2,-1.92 2.41,-3.82 3.64,-5.72c2.55,-4 5.19,-7.85 7.9,-11.71q8.53,-12.18 18,-23.63a27.27,27.27 0 0 1 6,-0.67c11.53,0 21.78,7.14 28.33,18.23a56.53,56.53 0 0 1 7.52,28.63z" fill="#3f3d56" id="svg_96"/>
  <path d="m127.6,171.45a56.58,56.58 0 0 1 -7.46,28.63c-6.55,11.08 -16.81,18.21 -28.33,18.21c-9.26,0 -17.69,-4.59 -24,-12.14q8.53,-12.18 18,-23.63a371.69,371.69 0 0 1 35.6,-37.45a57.3,57.3 0 0 1 6.19,26.38z" fill="#3f3d56" id="svg_97"/>
  <path d="m303,790.54q17.14,3.32 34.83,5q18,1.76 36.53,1.76a376.28,376.28 0 0 0 51.33,-3.51l440.36,0c1.19,0.19 2.38,0.38 3.58,0.55a278.16,278.16 0 0 0 297.89,-170c-7.81,-5.07 -15.67,-10 -23.62,-14.83s-16.08,-9.4 -24.4,-13.75c-1.25,-0.67 -2.51,-1.32 -3.78,-2a331.31,331.31 0 0 0 -47.65,-20.11c-7.1,-2.33 -14.26,-4.35 -21.46,-6q-5.11,-1.19 -10.25,-2.12q-6.46,-1.19 -13,-1.94a176,176 0 0 0 -34.42,-0.74l0,0q-3.16,0.24 -6.34,0.63q-6.11,0.71 -12.19,1.92q-7.5,1.5 -14.76,3.68c-41.7,12.39 -77.82,40.08 -115.22,63.18l-1.43,0.89a569.75,569.75 0 0 1 -123.52,56.65q-12.11,3.9 -24.38,7.26q-14,3.84 -28.1,7c-1.79,0.4 -3.59,0.79 -5.38,1.16q-10.79,2.31 -21.66,4.18a578.73,578.73 0 0 1 -133.84,7.52q-10,-0.6 -20.05,-1.57q-13.31,-1.28 -26.54,-3.21l0,0l-1.82,-0.26c-7.63,-1.13 -15.26,-2.42 -22.88,-3.71c-9.14,-1.54 -18.28,-3.06 -27.43,-4.3c-3.1,-0.43 -6.19,-0.81 -9.29,-1.16a241.73,241.73 0 0 0 -29.35,-1.62c-1.55,0 -3.1,0.06 -4.66,0.13c-16.73,0.65 -33.7,3.9 -48.84,10.61l-0.86,0.38a91.7,91.7 0 0 0 -22.13,13.91q-2.86,2.44 -5.52,5.18c-12.92,13.33 -20.65,29.68 -27,46.78a368.22,368.22 0 0 0 39,10.7l8.25,1.76z" fill="#2f2e41" id="svg_98"/>
  <circle cx="389" cy="249.62" r="2" fill="#fff" opacity="0.6" id="svg_99"/>
  <circle cx="186" cy="251.62" r="2" fill="#fff" opacity="0.6" id="svg_100"/>
  <circle cx="615" cy="355.62" r="2" fill="#fff" opacity="0.6" id="svg_101"/>
  <circle cx="767" cy="285.62" r="2" fill="#fff" opacity="0.6" id="svg_102"/>
  <path d="m303,790.54a108.41,108.41 0 0 0 3.59,-27.79c0,-2.42 -0.09,-4.82 -0.24,-7.2a108.89,108.89 0 0 0 4.65,-31.66a111.26,111.26 0 0 0 -0.61,-11.61c0,-0.21 -0.05,-0.43 -0.07,-0.64a107.37,107.37 0 0 0 -11,-36.77l-45.32,14.12l-17.55,5.46l13.23,-7.78l42,-24.68a108.75,108.75 0 0 0 -81.74,-46.59a109.39,109.39 0 0 0 -8.48,-11.23l-34.89,10.85l-55.57,17.26l47.68,-28l26.42,-15.61a108.77,108.77 0 0 0 -141.54,7.93l0,0l-0.62,0.61a375.93,375.93 0 0 0 119.64,134.5a372,372 0 0 0 132.12,57.14l8.3,1.69z" fill="#2f2e41" id="svg_103"/>
  <path d="m510.19,791.83l-83.81,0c9.8,-16.13 24.93,-26.48 41.91,-26.48s32.11,10.32 41.9,26.48z" fill="#3f3d56" id="svg_104"/>
  <path d="m510.19,791.83l-83.81,0c9.8,-16.13 24.93,-26.48 41.91,-26.48s32.11,10.32 41.9,26.48z" opacity="0.1" id="svg_105"/>
  <path d="m303,788.54q17.14,3.32 34.83,5q18,1.76 36.53,1.76a376.28,376.28 0 0 0 51.33,-3.51l194.69,0a108.94,108.94 0 0 0 11.18,-48.08c0,-2.42 -0.09,-4.82 -0.24,-7.2a108.61,108.61 0 0 0 4.68,-29.04c0,-0.86 0,-1.72 0,-2.58a108.32,108.32 0 0 0 -11.65,-49l-63,19.58l55.26,-32.49a108.75,108.75 0 0 0 -81.74,-46.59q-2,-3.09 -4.27,-6c-0.41,-0.54 -0.83,-1.08 -1.25,-1.61q-1.44,-1.83 -3,-3.59l-2.54,0.79l-87.81,27.3l72.38,-42.61l1.72,-1a108.82,108.82 0 0 0 -83.51,-21c-1.66,0.25 -3.31,0.56 -4.95,0.91a108.3,108.3 0 0 0 -40.7,17.8a109,109 0 0 0 -42.05,60.29l23,26.45l8.34,9.61l18.64,21.46l14.54,16.73l12.95,14.91l-22.26,-16.05l-31.25,-22.57l-30.64,-22.13a109.13,109.13 0 0 0 -27.74,28.59a108.06,108.06 0 0 0 -16.21,39.53a109.41,109.41 0 0 0 6.44,62.66l8.3,1.68z" fill="#2f2e41" id="svg_106"/>
  <path d="m676.08,755.15c6.45,-10.71 0.35,-24.48 -6.93,-34.63s-16.22,-20.79 -15.44,-33.25c1.13,-17.92 20.66,-27.62 36.31,-36.41a168.85,168.85 0 0 0 32.17,-23.48c3.91,-3.64 7.71,-7.55 10.12,-12.31c3.47,-6.86 3.76,-14.84 3.92,-22.54q0.77,-38.42 -0.23,-76.86l-59.92,239.48z" fill="#2f2e41" id="svg_107"/>
  <path d="m1091.84,471.8q5.65,12.78 11.09,25.65q9.51,22.54 18.35,45.35c2.78,7.17 5.55,14.66 5,22.33c-0.42,5.33 -2.44,10.39 -4.68,15.24l-0.21,0.46q-2.61,5.61 -5.62,11a167.39,167.39 0 0 1 -11.13,17.38q-1.87,2.58 -3.85,5.08c-5.14,6.51 -11,13.52 -15.19,20.85c-3.38,5.86 -5.72,11.93 -5.84,18.12a24.69,24.69 0 0 0 1.31,8.52c4,11.83 16.34,18.25 26.94,24.87a57.09,57.09 0 0 1 13.46,11.29" fill="none" stroke="#2f2e41" stroke-miterlimit="10" stroke-width="4" id="svg_108"/>
  <circle cx="1092.72" cy="471.38" r="28" fill="#2f2e41" id="svg_109"/>
  <circle cx="1142.21" cy="518.05" r="28" fill="#2f2e41" id="svg_110"/>
  <circle cx="1093.46" cy="583.54" r="28" fill="#2f2e41" id="svg_111"/>
  <circle cx="1107.7" cy="652.29" r="28" fill="#2f2e41" id="svg_112"/>
  <path d="m860.55,660.06c1.88,-12.35 -9,-22.76 -19.59,-29.38s-22.96,-13.01 -26.96,-24.88c-5.77,-17 8.59,-33.39 19.72,-47.48a168.43,168.43 0 0 0 20.81,-34c2.24,-4.85 4.26,-9.91 4.68,-15.23c0.6,-7.67 -2.17,-15.16 -5,-22.33q-13.87,-35.85 -29.44,-71" fill="none" stroke="#2f2e41" stroke-miterlimit="10" stroke-width="4" id="svg_113"/>
  <circle cx="825.72" cy="415.38" r="28" fill="#2f2e41" id="svg_114"/>
  <circle cx="875.21" cy="462.05" r="28" fill="#2f2e41" id="svg_115"/>
  <circle cx="826.46" cy="527.54" r="28" fill="#2f2e41" id="svg_116"/>
  <circle cx="840.7" cy="596.29" r="28" fill="#2f2e41" id="svg_117"/>
  <path d="m370.86,565.84c2.92,-4.39 0.62,-10.31 -2.25,-14.73s-6.44,-9.06 -5.87,-14.3c0.81,-7.53 9.23,-11.24 16,-14.65a71,71 0 0 0 14,-9.27a19.29,19.29 0 0 0 4.51,-5c1.59,-2.83 1.86,-6.19 2.08,-9.42q1.08,-16.18 1.38,-32.39" fill="none" stroke="#3f3d56" stroke-miterlimit="10" stroke-width="4" id="svg_118"/>
  <circle cx="401.12" cy="466.08" r="11.81" fill="#3f3d56" id="svg_119"/>
  <circle cx="411.73" cy="492.74" r="11.81" fill="#3f3d56" id="svg_120"/>
  <circle cx="381.43" cy="509.1" r="11.81" fill="#3f3d56" id="svg_121"/>
  <circle cx="374.63" cy="537.92" r="11.81" fill="#3f3d56" id="svg_122"/>
  <path d="m918,368.39c-1.53,-8.49 -0.77,-17.64 -4.66,-25.31a5.61,5.61 0 0 0 -1.77,-2.27a6.12,6.12 0 0 0 -3.17,-0.72q-5.26,-0.23 -10.55,-0.1c-1,0 -2.14,0.15 -2.65,1a2,2 0 0 0 -0.14,0.3c-4,-4.5 -7.08,-10.1 -11.42,-14.26c0.62,-0.2 1.24,-0.4 1.87,-0.57c-0.06,-0.42 -0.14,-0.84 -0.23,-1.25l-0.1,-0.37c-0.07,-0.29 -0.15,-0.57 -0.23,-0.85s-0.1,-0.27 -0.14,-0.41s-0.17,-0.53 -0.27,-0.79l-0.17,-0.41c-0.1,-0.26 -0.2,-0.52 -0.32,-0.77s-0.11,-0.25 -0.17,-0.38l-0.38,-0.8c0,-0.11 -0.11,-0.21 -0.16,-0.32c-0.15,-0.29 -0.29,-0.57 -0.44,-0.84l-0.15,-0.27l-0.51,-0.9l-0.1,-0.17c-0.2,-0.34 -0.4,-0.68 -0.61,-1l0,0c-1.7,-2.78 -3.58,-5.5 -4.95,-8.33c-2.43,-5 -3.23,-10.64 -4.84,-16s-4.41,-10.74 -9.3,-13.27c-2.32,-1.2 -5.45,-2.25 -5.66,-4.89a5.64,5.64 0 0 1 0.51,-2.45a31.57,31.57 0 0 1 2.43,-4.91c0.34,-0.58 0.72,-1.15 1.1,-1.7c0.09,-0.14 0.19,-0.27 0.29,-0.41c0.3,-0.42 0.61,-0.82 0.92,-1.22l0.39,-0.49c0.32,-0.38 0.64,-0.75 1,-1.11l0.39,-0.44c0.46,-0.49 0.93,-1 1.42,-1.43a3.33,3.33 0 0 0 1,-1.32a4,4 0 0 0 0.08,-1.57c-0.24,-4.25 2,-8.22 4.49,-11.64s5.38,-6.67 6.79,-10.67c0.16,-0.46 0.3,-0.93 0.42,-1.39c0,-0.16 0.07,-0.31 0.1,-0.47s0.14,-0.63 0.2,-0.94s0.05,-0.37 0.08,-0.55s0.08,-0.59 0.11,-0.88s0,-0.39 0,-0.58s0,-0.58 0,-0.87s0,-0.38 0,-0.58s0,-0.58 0,-0.88s0,-0.37 0,-0.56s0,-0.63 -0.08,-0.94s0,-0.34 -0.05,-0.51q-0.06,-0.54 -0.15,-1.08c0,-0.12 0,-0.24 0,-0.36c-0.08,-0.5 -0.17,-1 -0.27,-1.48l0,0a75.63,75.63 0 0 0 -2.73,-9.29a33.12,33.12 0 0 0 -2.26,-5.42c0.55,-0.1 1.1,-0.23 1.66,-0.38c-0.35,-0.64 -0.9,-1.39 -1.21,-2.11c3.29,-5.16 6.16,-10.56 7.6,-16.49a73.68,73.68 0 0 0 1.56,-12.75c0.83,-12.87 1.65,-25.81 0.59,-38.66c0,-0.17 0,-0.34 0,-0.51a31.81,31.81 0 0 0 0.08,-8.33c-0.53,-5.38 -1.79,-10.81 -4.67,-15.36s-7.65,-8.56 -12.94,-9.1a19.19,19.19 0 0 1 -2.89,2.67a11.34,11.34 0 0 1 -3.36,-5.24a28.56,28.56 0 0 0 23.95,-25c0.06,-0.47 0.1,-0.94 0.13,-1.41c0,-0.2 0,-0.39 0,-0.58s0,-0.54 0,-0.81l0,-0.75c0,-0.2 0,-0.4 0,-0.61s0,-0.57 0,-0.86l0,-0.47c0,-0.32 0,-0.64 -0.08,-1c0,-0.11 0,-0.22 0,-0.34c0,-0.35 -0.08,-0.69 -0.14,-1l0,-0.22c-0.06,-0.38 -0.13,-0.75 -0.2,-1.12a0.5,0.5 0 0 1 0,-0.12c-0.08,-0.4 -0.17,-0.79 -0.27,-1.19l0,0a29,29 0 0 0 -3.14,-7.7a29,29 0 0 0 2.26,-8.27c0.06,-0.52 0.11,-1 0.14,-1.54c0,-0.33 0,-0.66 0,-1c0,-0.17 0,-0.33 0,-0.49c0,-0.43 0,-0.85 0,-1.28l0,-0.13a29,29 0 0 0 -8,-19.12a17.78,17.78 0 0 0 1.42,-3.06l0,0c0.11,-0.31 0.21,-0.62 0.31,-0.94l0,0c0.09,-0.3 0.17,-0.6 0.24,-0.91c0,0 0,0 0,-0.08c0.07,-0.28 0.12,-0.56 0.18,-0.85l0,-0.15c0.06,-0.33 0.11,-0.66 0.15,-1s0.07,-0.7 0.09,-1c0,-0.11 0,-0.22 0,-0.33s0,-0.48 0,-0.72l0,-0.36l0,-0.72c0,-0.11 0,-0.21 0,-0.32a17.59,17.59 0 0 0 -35.06,-0.8a18.15,18.15 0 0 0 0.16,5.42a28.69,28.69 0 0 0 -16,22.46a29.09,29.09 0 0 0 -0.17,4.83a29,29 0 0 0 -4.5,13.36l0,0l0,0.54c0,0.6 -0.07,1.2 -0.07,1.81a28.88,28.88 0 0 0 11.12,22.85a20.22,20.22 0 0 0 5.62,5.92a23.1,23.1 0 0 1 0.9,3.72c0.17,3.4 -0.84,7 -3.41,9.23c-0.65,0.54 -1.37,1 -2,1.51a3.65,3.65 0 0 0 -2.07,0.05c-7.67,2.41 -15,7.18 -18.55,14.5a27.65,27.65 0 0 0 -1.84,5.17c-0.14,0.21 -0.29,0.42 -0.42,0.64a74.6,74.6 0 0 0 -9.97,23.87c-1,4.33 -1.57,8.83 -3.59,12.77a12.55,12.55 0 0 0 -1.17,2.59a26.51,26.51 0 0 0 -0.18,4.19c-0.21,2.53 -1.68,4.77 -2.17,7.26c-0.3,1.48 -0.24,3 -0.5,4.5c-0.46,2.61 -1.87,4.93 -2.77,7.41c-1.59,4.37 -1.57,9.17 -2.74,13.68a4.71,4.71 0 0 1 -0.92,2c-0.8,0.89 -2.06,1.1 -3.1,1.67a6.83,6.83 0 0 0 -3.11,4.66a20.78,20.78 0 0 0 -0.1,5.79l0.58,7.55c-2.82,0.84 -5.63,1.7 -8.44,2.56l-13.87,4.24c-4,1.22 -8.06,2.48 -11.51,4.86a21,21 0 0 0 -7.25,8.8c-1.58,3.61 -2.13,7.58 -2.69,11.5c-1.59,11 -3.52,22 -7.13,32.41c-0.28,0.81 -0.58,1.62 -0.88,2.43l0,0c-0.3,0.8 -0.62,1.59 -0.94,2.38l-0.21,0.48c-0.26,0.64 -0.52,1.27 -0.8,1.89c-0.36,0.8 -0.72,1.6 -1.11,2.38l32.44,10.87c0,0.39 0.08,0.8 0.14,1.27c1.12,8 0.58,16.06 1.62,24a15.61,15.61 0 0 0 0.9,3.89a5.52,5.52 0 0 0 -1.7,2.71a14.46,14.46 0 0 0 -0.17,5.17q0.56,6.1 1.1,12.23a18.74,18.74 0 0 1 0.05,4.49c-0.41,2.69 -1.94,5.05 -2.8,7.63s-0.8,5.87 1.33,7.51a5.28,5.28 0 0 0 5.11,0.46a11.89,11.89 0 0 0 4.23,-3.27c6.54,-7.24 9.46,-17.05 14.55,-25.42a49.15,49.15 0 0 0 3.47,-6.06c0.7,-1.62 1.14,-3.34 1.71,-5a48.79,48.79 0 0 1 2.8,-6.53c0.6,-1.2 2.92,-4.1 2.43,-5.45c-0.83,-2.29 -9.74,-4.33 -11.94,-5c-1.42,-0.46 -3,-0.87 -4.36,-0.2a2.87,2.87 0 0 0 -0.59,0.39c-0.25,-3.28 -0.51,-6.56 -0.76,-9.83c1.32,-0.12 2.63,-0.29 3.93,-0.5c-0.05,-1.85 -0.09,-3.71 -0.13,-5.58l-0.12,-5.13c-0.09,-4.15 -0.18,-8.31 -0.29,-12.41a66.59,66.59 0 0 0 -0.46,-7.2c-0.51,-3.66 -1.62,-7.22 -2,-10.89a4.12,4.12 0 0 1 1.84,-0.84l0,0a12.67,12.67 0 0 1 3.15,-0.11l0.83,0c4.58,0.14 9.06,-1.48 13.14,-3.62s7.87,-4.8 11.93,-7c0.5,-0.27 1,-0.53 1.53,-0.79l0.56,-0.28l0.95,-0.47l0.79,-0.38l0.18,-0.09c2.37,-1.13 4.76,-2.23 7,-3.46a7.11,7.11 0 0 0 0.5,0.72a4.7,4.7 0 0 0 5,1.8c-2.8,6.77 -6.1,13.32 -6.94,20.64c-1.22,10.56 3,20.9 7.15,30.66l13.23,31.19c1.46,3.45 3.41,7.32 7,8.14c2.24,0.51 4.56,-0.34 6.64,-1.33c6,-2.88 11.5,-7 17,-10.88a1.84,1.84 0 0 1 0.22,0.17c5,3.95 8.15,9.48 11.61,14.75l9.28,15.23a4.43,4.43 0 0 0 0.37,2.24a13,13 0 0 0 2.6,3.37a43.91,43.91 0 0 1 11.15,22.82c0.34,2.16 0.57,4.46 1.84,6.23c2.49,3.45 7.78,3.23 11.52,1.26a7.51,7.51 0 0 0 2.88,-2.38a9.53,9.53 0 0 0 1.17,-3.61a50.6,50.6 0 0 0 1.11,-9.57c0.03,-6.05 -2.22,-11.86 -3.28,-17.84zm-53.2,-280.22c0.64,-0.43 1.26,-0.9 1.87,-1.39a28.73,28.73 0 0 1 -6,10.2l0,0c-0.63,0.69 -1.3,1.34 -2,2c0,-0.16 0,-0.32 0,-0.47c-0.08,-1.53 0,-3.14 0.05,-4.72a20.22,20.22 0 0 0 6.08,-5.62zm-52.52,117.35c0,-0.09 0.07,-0.19 0.11,-0.29a6.17,6.17 0 0 1 1.35,1.4a5.57,5.57 0 0 0 0.2,5c0.78,1.32 2.18,2.54 1.87,4s-2.2,2.09 -3.75,2.34c-2,0.32 -4,0.7 -6,1.11c0,0 0,-0.07 0,-0.11a15.46,15.46 0 0 0 -0.68,-4.95c3.42,-1.41 5.56,-4.95 6.9,-8.5z" fill="url(#a09f8209-a7b7-4999-9a81-8afbf160c3ae)" id="svg_123"/>
  <path d="m874.18,32.38a17.65,17.65 0 1 0 -32.7,-11.14a17.94,17.94 0 0 0 0.16,5.34a28.36,28.36 0 0 0 -15.95,22.2a29.31,29.31 0 0 0 -0.17,4.76a28.37,28.37 0 1 0 52.15,15.48q0,-0.67 0,-1.35a28.38,28.38 0 0 0 -3.46,-35.29l-0.03,0z" fill="#2f2e41" id="svg_124"/>
  <g opacity="0.1" id="svg_125">
   <path d="m841.41,22.1l0.23,-0.12c0,-0.31 -0.09,-0.62 -0.13,-0.93l0,0.19c-0.07,0.29 -0.08,0.57 -0.1,0.86z" id="svg_126"/>
   <path d="m882,50.98a28.24,28.24 0 0 1 -4.39,12.09q0,0.67 0,1.35a28.37,28.37 0 0 1 -56.61,2.25c-0.06,0.76 -0.1,1.53 -0.1,2.31a28.38,28.38 0 1 0 56.75,0q0,-0.67 0,-1.35a28.24,28.24 0 0 0 4.35,-12.04a27.53,27.53 0 0 0 0.1,-5.73c0,0.37 -0.02,0.75 -0.1,1.12z" id="svg_127"/>
   <path d="m876.51,21.03a17.71,17.71 0 0 1 -2.33,6.75c0.49,0.51 1,1 1.42,1.59a17.68,17.68 0 0 0 0.93,-3.89a17.9,17.9 0 0 0 -0.02,-4.45z" id="svg_128"/>
  </g>
  <path d="m759.84,336.8a12.85,12.85 0 0 0 1.29,4.65a5.11,5.11 0 0 0 3.76,2.75a7.65,7.65 0 0 0 4.15,-1.2c2.52,-1.32 5.15,-2.85 6.46,-5.38s1.1,-5.37 0.88,-8.12l-1.69,-21.63c-4.09,-0.12 -8.2,-0.11 -12.28,0.11s-4.75,1.17 -4.19,5.12c1.12,7.86 0.57,15.84 1.62,23.7z" fill="#fbbebe" id="svg_129"/>
  <path d="m879.73,351.43l9.72,15.71a3.92,3.92 0 0 0 2.12,2a3.37,3.37 0 0 0 2,-0.36c3.24,-1.41 5.72,-4.11 8.11,-6.72c1.61,-1.78 3.28,-3.65 3.89,-6a7.62,7.62 0 0 0 -1.94,-7.16a24.65,24.65 0 0 0 -3.67,-2.62c-7.69,-5.18 -11.16,-15 -18.74,-20.36a3,3 0 0 0 -1.54,-0.66a3.17,3.17 0 0 0 -1.58,0.53l-10.37,5.69c-4.49,2.45 -3.07,2.74 0.34,5.39c5.06,3.91 8.19,9.36 11.66,14.56z" fill="#fbbebe" id="svg_130"/>
  <path d="m780.94,324.29c-1.42,-0.45 -3,-0.85 -4.36,-0.2a4.8,4.8 0 0 0 -2.27,3.59c-0.27,1.44 -0.24,2.94 -0.64,4.35c-0.68,2.39 -2.49,4.25 -4.24,6a6.27,6.27 0 0 1 -2.67,1.85c-1.4,0.36 -2.89,-0.29 -4.32,0a4.67,4.67 0 0 0 -3.4,3.47a13.59,13.59 0 0 0 -0.17,5.09l1.1,12.06a18.25,18.25 0 0 1 0,4.43c-0.41,2.65 -1.95,5 -2.8,7.52s-0.81,5.79 1.33,7.41a5.37,5.37 0 0 0 5.12,0.45a12,12 0 0 0 4.24,-3.22c6.55,-7.14 9.47,-16.82 14.56,-25.06a49,49 0 0 0 3.49,-6c0.69,-1.61 1.14,-3.3 1.7,-5a49.66,49.66 0 0 1 2.81,-6.43c0.61,-1.19 2.92,-4 2.44,-5.38c-0.78,-2.23 -9.71,-4.23 -11.92,-4.93z" fill="#2f2e41" id="svg_131"/>
  <path d="m899,357.55a12.46,12.46 0 0 1 -6.88,5.91a6.26,6.26 0 0 0 -2.32,1.21a3.64,3.64 0 0 0 -0.41,4a12.86,12.86 0 0 0 2.61,3.3a43,43 0 0 1 11.17,22.5c0.34,2.13 0.57,4.39 1.85,6.14c2.49,3.4 7.79,3.18 11.53,1.24a7.46,7.46 0 0 0 2.89,-2.34a9.35,9.35 0 0 0 1.17,-3.56a49.35,49.35 0 0 0 1.11,-9.44c-0.07,-6 -2.32,-11.73 -3.4,-17.63c-1.53,-8.37 -0.76,-17.39 -4.66,-24.95a5.54,5.54 0 0 0 -1.78,-2.24a6.21,6.21 0 0 0 -3.17,-0.71c-3.52,-0.15 -7.05,-0.18 -10.57,-0.09c-1,0 -2.15,0.14 -2.66,1s-0.06,2 0.4,2.87c2.18,4.26 5.72,7.67 3.12,12.79z" fill="#2f2e41" id="svg_132"/>
  <path d="m815.37,207.51a5.42,5.42 0 0 0 -1.27,6.86c0.78,1.3 2.18,2.5 1.87,4s-2.21,2.06 -3.76,2.31c-13.65,2.17 -26.94,6.17 -40.18,10.15l-13.89,4.18c-4,1.21 -8.08,2.45 -11.54,4.8a20.75,20.75 0 0 0 -7.26,8.67c-1.58,3.56 -2.13,7.48 -2.7,11.33c-2.08,14.2 -4.74,28.53 -11.08,41.4l33.69,11a48.45,48.45 0 0 0 10.09,2.54a37.7,37.7 0 0 0 9.83,-0.47c-0.21,-7.52 -0.34,-15.27 -0.55,-22.79a62.4,62.4 0 0 0 -0.46,-7.11c-0.5,-3.6 -1.62,-7.11 -2,-10.73c1.55,-1.28 3.81,-1 5.82,-0.91c4.6,0.14 9.09,-1.46 13.17,-3.57s7.89,-4.73 12,-6.87c6.77,-3.58 14.47,-6 19.64,-11.65c-2.63,10 -8.85,18.78 -10,29.08s3,20.6 7.16,30.23l13.26,30.75c1.46,3.4 3.41,7.21 7,8c2.25,0.51 4.57,-0.34 6.66,-1.31c12.19,-5.72 22,-16.45 35,-19.89c-1,-6.45 -6.06,-11.78 -8.95,-17.63c-2.43,-4.93 -3.23,-10.48 -4.85,-15.74s-4.41,-10.58 -9.31,-13.08c-2.32,-1.18 -5.46,-2.21 -5.68,-4.82a5.56,5.56 0 0 1 0.52,-2.42a31.72,31.72 0 0 1 7.93,-11.54a3.53,3.53 0 0 0 1,-1.3a3.84,3.84 0 0 0 0.08,-1.55c-0.25,-4.19 2,-8.11 4.5,-11.47s5.39,-6.57 6.8,-10.52c2.42,-6.8 0,-14.26 -2.38,-21.06c-1,-2.75 -2,-5.59 -4,-7.72c-3.12,-3.34 -8,-4.3 -12.53,-4.8c-14.72,-1.57 -32,-5.42 -43.63,3.65z" fill="#2f2e41" id="svg_133"/>
  <g opacity="0.1" id="svg_134">
   <path d="m871.06,237.26c-2.51,3.37 -4.75,7.28 -4.5,11.47a3.84,3.84 0 0 1 -0.08,1.55a3.56,3.56 0 0 1 -1,1.31a31.64,31.64 0 0 0 -7.93,11.54a5.53,5.53 0 0 0 -0.52,2.42c0.14,1.63 1.43,2.65 3,3.47a31.6,31.6 0 0 1 5.5,-6.7a3.53,3.53 0 0 0 1,-1.3a3.84,3.84 0 0 0 0.08,-1.55c-0.25,-4.19 2,-8.11 4.5,-11.47s5.39,-6.57 6.8,-10.52a21.94,21.94 0 0 0 0.36,-11.9c-0.11,0.39 -0.23,0.78 -0.36,1.16c-1.46,3.93 -4.35,7.15 -6.85,10.52z" id="svg_135"/>
   <path d="m813.84,209.54a2.83,2.83 0 0 0 2.16,-1.87a1.9,1.9 0 0 0 0,-0.58c-0.21,0.16 -0.42,0.3 -0.63,0.47a5,5 0 0 0 -1.53,1.98z" id="svg_136"/>
   <path d="m769.34,304.04a49.73,49.73 0 0 1 -10.09,-2.54l-29.74,-9.75a88.36,88.36 0 0 1 -4,9.44l33.69,11a48.45,48.45 0 0 0 10.09,2.54a37.7,37.7 0 0 0 9.83,-0.47c-0.1,-3.53 -0.18,-7.12 -0.26,-10.7a37,37 0 0 1 -9.52,0.48z" id="svg_137"/>
   <path d="m850.81,336.67c-2.09,1 -4.41,1.82 -6.66,1.32c-3.6,-0.81 -5.55,-4.63 -7,-8l-13.26,-30.75c-2.91,-6.76 -5.86,-13.8 -6.94,-21c-0.08,0.51 -0.16,1 -0.22,1.52c-1.22,10.41 3,20.6 7.16,30.23l13.26,30.75c1.46,3.4 3.41,7.21 7,8c2.25,0.51 4.57,-0.34 6.66,-1.31c12.19,-5.72 22,-16.45 35,-19.89c-0.5,-3.36 -2.14,-6.42 -4,-9.41c-11.12,4.33 -20.09,13.46 -31,18.54z" id="svg_138"/>
   <path d="m826.77,239.94c-5.17,5.65 -12.87,8.06 -19.64,11.64c-4.06,2.15 -7.86,4.77 -12,6.88s-8.57,3.7 -13.17,3.57c-2,-0.06 -4.27,-0.38 -5.82,0.9c0.32,3.35 1.29,6.59 1.84,9.91a17.61,17.61 0 0 1 4,-0.08c4.6,0.14 9.09,-1.46 13.17,-3.57s7.89,-4.73 12,-6.87c4.46,-2.36 9.32,-4.22 13.6,-6.82c2.14,-5.11 4.6,-10.15 6.02,-15.56z" id="svg_139"/>
  </g>
  <path d="m838.59,101.06c0.17,3.35 -0.84,6.94 -3.42,9.09c-0.83,0.69 -1.79,1.22 -2.59,1.94a7,7 0 0 0 1,10.61c2.67,1.64 6.08,1.2 9.17,0.66a53.89,53.89 0 0 0 12,-3.14a20,20 0 0 0 9.5,-7.78c-3.37,-1.87 -5.2,-5.82 -5.41,-9.66s0.85,-8.23 -1.59,-11.22s-6.7,-2.89 -10.25,-1.89c-1.8,0.5 -3.54,1.18 -5.34,1.67c-0.91,0.24 -3.93,0.25 -4.52,0.92c-1.14,1.24 1.34,6.85 1.45,8.8z" fill="#fbbebe" id="svg_140"/>
  <path d="m838.59,101.06c0.17,3.35 -0.84,6.94 -3.42,9.09c-0.83,0.69 -1.79,1.22 -2.59,1.94a7,7 0 0 0 1,10.61c2.67,1.64 6.08,1.2 9.17,0.66a53.89,53.89 0 0 0 12,-3.14a20,20 0 0 0 9.5,-7.78c-3.37,-1.87 -5.2,-5.82 -5.41,-9.66s0.85,-8.23 -1.59,-11.22s-6.7,-2.89 -10.25,-1.89c-1.8,0.5 -3.54,1.18 -5.34,1.67c-0.91,0.24 -3.93,0.25 -4.52,0.92c-1.14,1.24 1.34,6.85 1.45,8.8z" opacity="0.1" id="svg_141"/>
  <circle cx="848.91" cy="80.9" r="19.94" fill="#fbbebe" id="svg_142"/>
  <path d="m786,233.88a13.5,13.5 0 0 1 -1.88,4.43a20.83,20.83 0 0 0 -2.38,13.61a14.39,14.39 0 0 0 8.39,10.59c1.86,0.74 4.17,0.93 5.71,-0.36c-2.66,-3.46 -2.8,-8.19 -2.64,-12.56a4.14,4.14 0 0 1 0.56,-2.33a1.46,1.46 0 0 1 2.1,-0.38a19,19 0 0 0 1.56,8c0.42,1 1.14,2 2.2,2c1.52,0 1.93,-2.1 1.87,-3.62c-0.23,-6.18 -0.54,-12.62 -3.52,-18.05c-1.09,-2 -2.54,-3.84 -3,-6.07a3.6,3.6 0 0 0 -0.76,-2.13a2.68,2.68 0 0 0 -1.12,-0.52c-1.72,-0.49 -5.78,-2 -7.2,-0.39s0.34,5.72 0.11,7.78z" fill="#fbbebe" id="svg_143"/>
  <path d="m815.56,127.94c-2.28,-0.25 -4.09,1.84 -5.34,3.77a72.87,72.87 0 0 0 -9.93,23.53c-1,4.27 -1.57,8.7 -3.6,12.58a13.12,13.12 0 0 0 -1.17,2.56a25.75,25.75 0 0 0 -0.18,4.13c-0.21,2.49 -1.68,4.7 -2.18,7.16c-0.29,1.46 -0.23,3 -0.49,4.44c-0.46,2.57 -1.87,4.85 -2.78,7.3c-1.59,4.31 -1.57,9 -2.74,13.49a4.66,4.66 0 0 1 -0.93,2c-0.79,0.87 -2.06,1.09 -3.1,1.64a6.73,6.73 0 0 0 -3.11,4.6a20.21,20.21 0 0 0 -0.11,5.71l0.92,11.79c0.94,-0.39 1.56,-1.46 2.35,-2.12c1.44,-1.2 3.56,-0.93 5.4,-0.59l2.69,0.48c2.75,0.5 5.74,1.14 7.5,3.3c1.4,-2.19 0.6,-5.42 2.75,-6.88c0.71,-0.47 1.57,-0.63 2.31,-1a5.18,5.18 0 0 0 2.35,-4.14a15.14,15.14 0 0 0 -0.68,-4.89c3.45,-1.45 5.6,-4.95 7,-8.44a70.68,70.68 0 0 0 3.21,-13c3.11,-17.53 6,-35.18 6.25,-53a25.43,25.43 0 0 0 -1,-8.83c-1.01,-2.86 -2.43,-5.25 -5.39,-5.59z" fill="#ff6f61" id="svg_144"/>
  <path d="m815.56,127.94c-2.28,-0.25 -4.09,1.84 -5.34,3.77a72.87,72.87 0 0 0 -9.93,23.53c-1,4.27 -1.57,8.7 -3.6,12.58a13.12,13.12 0 0 0 -1.17,2.56a25.75,25.75 0 0 0 -0.18,4.13c-0.21,2.49 -1.68,4.7 -2.18,7.16c-0.29,1.46 -0.23,3 -0.49,4.44c-0.46,2.57 -1.87,4.85 -2.78,7.3c-1.59,4.31 -1.57,9 -2.74,13.49a4.66,4.66 0 0 1 -0.93,2c-0.79,0.87 -2.06,1.09 -3.1,1.64a6.73,6.73 0 0 0 -3.11,4.6a20.21,20.21 0 0 0 -0.11,5.71l0.92,11.79c0.94,-0.39 1.56,-1.46 2.35,-2.12c1.44,-1.2 3.56,-0.93 5.4,-0.59l2.69,0.48c2.75,0.5 5.74,1.14 7.5,3.3c1.4,-2.19 0.6,-5.42 2.75,-6.88c0.71,-0.47 1.57,-0.63 2.31,-1a5.18,5.18 0 0 0 2.35,-4.14a15.14,15.14 0 0 0 -0.68,-4.89c3.45,-1.45 5.6,-4.95 7,-8.44a70.68,70.68 0 0 0 3.21,-13c3.11,-17.53 6,-35.18 6.25,-53a25.43,25.43 0 0 0 -1,-8.83c-1.01,-2.86 -2.43,-5.25 -5.39,-5.59z" opacity="0.1" id="svg_145"/>
  <path d="m865.83,108.86a25.08,25.08 0 0 1 -12.13,7a74.45,74.45 0 0 1 -14,2.07a8.71,8.71 0 0 1 -4.34,-0.38c-1.34,-0.6 -2.36,-2.19 -1.81,-3.55a3.93,3.93 0 0 0 0.45,-1.33c0,-1.21 -1.81,-1.31 -3,-0.95c-7.68,2.37 -15,7.07 -18.58,14.28c-2,4.08 -2.66,8.66 -3.3,13.15c-1.66,11.82 -3.33,23.9 -1.09,35.62c1.19,6.25 3.49,12.35 3.63,18.71c0.08,3.57 -0.52,7.12 -0.49,10.69a5.36,5.36 0 0 0 0.94,3.52c0.55,0.64 1.39,1.05 1.77,1.8c0.64,1.26 -0.22,3 0.63,4.13c1,1.39 3.23,0.39 4.66,-0.59a37.11,37.11 0 0 1 24.68,-6.22c10.45,1.13 20.83,6.69 31,3.91a14,14 0 0 1 -1.35,-2.41c-5,-16.61 -4.71,-35.17 2.85,-50.79c2.59,-5.34 6,-10.43 7,-16.27a30.87,30.87 0 0 0 0.1,-8.26c-0.53,-5.31 -1.8,-10.66 -4.68,-15.15s-7.63,-8.46 -12.94,-8.98z" fill="#ff6f61" id="svg_146"/>
  <path d="m817.59,239.01a18.37,18.37 0 0 0 -1.15,6.79a39.71,39.71 0 0 0 0.33,6.63a10.53,10.53 0 0 0 1.94,5.2a4.75,4.75 0 0 0 5,1.77a5.21,5.21 0 0 0 3,-3.34a30.23,30.23 0 0 0 0.94,-4.54c0.88,-4.53 3.25,-8.78 3.3,-13.39a3.8,3.8 0 0 0 -0.26,-1.6c-0.86,-1.9 -5.1,-4 -7.17,-3.7c-2.6,0.4 -4.99,4 -5.93,6.18z" fill="#fbbebe" id="svg_147"/>
  <path d="m875.13,125.67c-0.39,4 3.44,6.95 5,10.64a17.89,17.89 0 0 1 1,5.35c1.07,12.67 0.24,25.42 -0.59,38.12a71.53,71.53 0 0 1 -1.54,12.58c-2.14,8.68 -7.41,16.19 -12.57,23.49a20.33,20.33 0 0 1 -2.69,3.29a20.12,20.12 0 0 1 -5,3l-17.74,8.63a34.12,34.12 0 0 0 -6.29,3.62a17.16,17.16 0 0 0 -5.21,6.77c-3.43,-1.75 -7,-3.33 -10.43,-5.08c-0.81,-0.41 -1.71,-1 -1.84,-1.84c-0.19,-1.2 1.06,-2 1.92,-2.9c1.61,-1.59 2.11,-3.95 3,-6c2.85,-6.84 10,-11.21 12.6,-18.15c1,-2.66 1.3,-5.67 3.06,-7.91a19.66,19.66 0 0 1 3.38,-3a57.09,57.09 0 0 0 7.48,-7.67a13,13 0 0 0 2.45,-3.58c0.78,-2 0.55,-4.17 0.59,-6.28c0.13,-6.92 3.26,-13.38 5.18,-20c1.8,-6.26 2.55,-12.84 4.92,-18.91s7.01,-12.52 13.32,-14.17z" opacity="0.1" id="svg_148"/>
  <path d="m877.43,125.67c-0.39,4 3.44,6.95 5,10.64a17.89,17.89 0 0 1 1,5.35c1.07,12.67 0.24,25.42 -0.59,38.12a71.53,71.53 0 0 1 -1.56,12.56c-2.14,8.68 -7.41,16.19 -12.57,23.49a20.33,20.33 0 0 1 -2.69,3.29a20.12,20.12 0 0 1 -5,3l-17.7,8.58a34.12,34.12 0 0 0 -6.29,3.62a17.16,17.16 0 0 0 -5.21,6.77c-3.43,-1.75 -7,-3.33 -10.43,-5.08c-0.81,-0.41 -1.71,-1 -1.84,-1.84c-0.19,-1.2 1.06,-2 1.92,-2.9c1.61,-1.59 2.11,-3.95 3,-6c2.85,-6.84 10,-11.21 12.6,-18.15c1,-2.66 1.3,-5.67 3.06,-7.91a19.66,19.66 0 0 1 3.38,-3a57.78,57.78 0 0 0 7.49,-7.67a12.92,12.92 0 0 0 2.44,-3.58c0.78,-2 0.55,-4.17 0.59,-6.28c0.13,-6.92 3.26,-13.38 5.18,-20c1.8,-6.26 2.55,-12.84 4.92,-18.91s6.99,-12.45 13.3,-14.1z" fill="#ff6f61" id="svg_149"/>
  <path d="m858.8,50.09a28.16,28.16 0 0 0 -17.7,3.66c0.78,0 1.57,0.08 2.37,0.18a28.37,28.37 0 0 1 10.9,52.67a28.37,28.37 0 0 0 4.43,-56.51z" fill="#2f2e41" id="svg_150"/>
  <path d="m867.53,65.86a13,13 0 0 1 0.22,9.94a11.12,11.12 0 0 0 -0.46,-1.21c-3.51,-7.81 -14.31,-11 -24.13,-7.22c-5.79,2.25 -9.94,6.45 -11.66,11.11c-2.5,-7.54 2.58,-16.21 11.9,-19.83c9.82,-3.82 20.6,-0.59 24.13,7.21z" fill="#2f2e41" id="svg_151"/>
  <g opacity="0.1" id="svg_152">
   <path d="m867.58,75.18a28.41,28.41 0 0 0 -19,-24.48a28.55,28.55 0 0 0 -7.52,3c0.78,0 1.57,0.08 2.37,0.18a28.37,28.37 0 0 1 24.15,21.3z" id="svg_153"/>
   <path d="m872.18,54.47a28.38,28.38 0 0 0 -19,-24.47a27.89,27.89 0 0 0 -7.52,3c0.78,0 1.57,0.08 2.37,0.18a28.36,28.36 0 0 1 24.15,21.29z" id="svg_154"/>
   <path d="m872.3,23.55a17.14,17.14 0 0 0 -11.44,-14.78a16.87,16.87 0 0 0 -4.54,1.9c0.47,0 0.95,0 1.43,0.1a17.13,17.13 0 0 1 14.55,12.78z" id="svg_155"/>
   <path d="m882.91,71.33a28.36,28.36 0 0 1 -22,30a28.33,28.33 0 0 1 -6.56,5.29a28.35,28.35 0 0 0 28.54,-35.27l0.02,-0.02z" id="svg_156"/>
  </g>
  <path d="m957,67.02a20.32,20.32 0 0 0 -11.74,1.28a17.27,17.27 0 0 1 -14.1,0a19.8,19.8 0 0 0 -16.58,0.32a10.29,10.29 0 0 1 -4.77,1.2c-6.72,0 -12.31,-6.77 -13.47,-15.71a12.94,12.94 0 0 0 3.36,-3.62c3.94,-6.35 10,-10.42 16.89,-10.42s12.89,4 16.83,10.31a13,13 0 0 0 11.16,6.13l0.18,0c5.3,-0.03 9.93,4.26 12.24,10.51z" fill="#00bfa6" opacity="0.1" id="svg_157"/>
  <path d="m977.42,38.99l-10.86,6.89l6.59,-12a10.69,10.69 0 0 0 -6.57,-2.35l-0.17,0a12,12 0 0 1 -2.25,-0.16l-3.69,2.3l1.58,-2.87a13.13,13.13 0 0 1 -6.44,-4.89l-6.61,4.22l4.16,-7.57c-3.85,-4.62 -9,-7.46 -14.76,-7.46c-6.85,0 -13,4.07 -16.9,10.43a12.64,12.64 0 0 1 -11.17,6l-0.33,0c-7.56,0 -13.7,8.58 -13.7,19.16s6.14,19.16 13.7,19.16a10.17,10.17 0 0 0 4.77,-1.2a19.8,19.8 0 0 1 16.58,-0.32a17.5,17.5 0 0 0 7.09,1.52a17.29,17.29 0 0 0 7,-1.49a19.79,19.79 0 0 1 16.43,0.32a10.24,10.24 0 0 0 4.72,1.17c7.57,0 13.7,-8.58 13.7,-19.16a24.35,24.35 0 0 0 -2.87,-11.7z" fill="#00bfa6" opacity="0.1" id="svg_158"/>
  <path d="m1040,195.54a28.9,28.9 0 0 0 -16.77,1.83a24.71,24.71 0 0 1 -20.14,0a28.26,28.26 0 0 0 -23.68,0.46a14.64,14.64 0 0 1 -6.82,1.71c-9.6,0 -17.59,-9.67 -19.25,-22.43a18.58,18.58 0 0 0 4.8,-5.18c5.63,-9.07 14.35,-14.89 24.14,-14.89s18.4,5.75 24,14.73a18.53,18.53 0 0 0 16,8.76l0.25,0c7.58,-0.05 14.2,6.08 17.47,15.01z" fill="#00bfa6" opacity="0.1" id="svg_159"/>
  <path d="m1069.2,155.49l-15.52,9.85l9.42,-17.14a15.4,15.4 0 0 0 -9.39,-3.35l-0.25,0a19.16,19.16 0 0 1 -3.22,-0.24l-5.26,3.33l2.26,-4.1a18.68,18.68 0 0 1 -9.2,-7l-9.42,6l6,-10.81c-5.51,-6.61 -12.93,-10.67 -21.09,-10.67c-9.79,0 -18.51,5.83 -24.14,14.9a18,18 0 0 1 -16,8.6l-0.53,0c-10.81,0 -19.57,12.26 -19.57,27.37s8.76,27.37 19.57,27.37a14.72,14.72 0 0 0 6.82,-1.7a28.22,28.22 0 0 1 23.68,-0.47a24.71,24.71 0 0 0 20.14,0.05a28.29,28.29 0 0 1 23.48,0.45a14.65,14.65 0 0 0 6.74,1.67c10.81,0 19.57,-12.25 19.57,-27.37a34.76,34.76 0 0 0 -4.09,-16.74z" fill="#00bfa6" opacity="0.1" id="svg_160"/>
  <path d="m692.62,140.02a20.32,20.32 0 0 1 11.74,1.28a17.24,17.24 0 0 0 14.09,0a19.8,19.8 0 0 1 16.58,0.32a10.32,10.32 0 0 0 4.77,1.2c6.72,0 12.32,-6.77 13.48,-15.71a12.79,12.79 0 0 1 -3.36,-3.62c-3.94,-6.35 -10,-10.42 -16.9,-10.42s-12.88,4 -16.82,10.31a13,13 0 0 1 -11.2,6.1l-0.17,0c-5.32,0 -9.96,4.29 -12.21,10.54z" fill="#00bfa6" opacity="0.1" id="svg_161"/>
  <path d="m672.14,111.99l10.86,6.89l-6.6,-12a10.71,10.71 0 0 1 6.57,-2.35l0.18,0a12,12 0 0 0 2.25,-0.16l3.68,2.33l-1.58,-2.87a13.15,13.15 0 0 0 6.45,-4.89l6.59,4.18l-4.17,-7.57c3.86,-4.62 9,-7.46 14.77,-7.46c6.85,0 13,4.07 16.9,10.43a12.63,12.63 0 0 0 11.17,6l0.36,0c7.57,0 13.7,8.58 13.7,19.16s-6.13,19.16 -13.7,19.16a10.23,10.23 0 0 1 -4.77,-1.2a19.8,19.8 0 0 0 -16.58,-0.32a17.45,17.45 0 0 1 -7.08,1.52a17.22,17.22 0 0 1 -7,-1.49a19.81,19.81 0 0 0 -16.44,0.32a10.21,10.21 0 0 1 -4.72,1.17c-7.56,0 -13.7,-8.58 -13.7,-19.16a24.35,24.35 0 0 1 2.86,-11.69z" fill="#00bfa6" opacity="0.1" id="svg_162"/>
  <rect fill="#2f2e41" x="378" y="768.33497" width="535" height="28" id="svg_163"/>
 </g>
</svg>