<svg width="1037.94" height="772.29" xmlns="http://www.w3.org/2000/svg" data-name="Layer 1">
 <defs>
  <linearGradient y2="0" x2="0.5" y1="1" x1="0.5" id="60672ce7-bfbc-4a60-a482-eb57e060a9c7">
   <stop stop-opacity="0.25" stop-color="gray" offset="0"/>
   <stop stop-opacity="0.12" stop-color="gray" offset="0.54"/>
   <stop stop-opacity="0.1" stop-color="gray" offset="1"/>
  </linearGradient>
 </defs>
 <title>time management</title>
 <g>
  <title>Layer 1</title>
  <path id="svg_1" opacity="0.1" fill="#558b2f" d="m104.4,77.33c-6.46,2.68 -13.09,6.12 -16.64,12.15c-3.76,6.37 -3.31,14.28 -2.61,21.65c6.1,63.92 22.17,131.9 -5.58,189.8c-13.47,28.09 -36,50.6 -53.92,76.11s-31.45,57.36 -23.13,87.37c10.16,36.67 48.08,57 73.64,85.22c16.73,18.45 28.46,40.87 44.07,60.28s37,36.51 61.92,37.65c35.84,1.65 65,-29.3 100.14,-36.47c36,-7.34 72.25,11.34 101.44,33.7s55.74,49.45 89.75,63.41c37.56,15.43 79.9,13.07 119.44,22.34c36,8.45 69.14,26.42 104.88,36s77.63,9 105.32,-15.47c36.09,-32 33.25,-89 56.3,-131.33c21.41,-39.33 63.32,-62.81 91.53,-97.58c50.76,-62.58 49.1,-158.23 6,-226.29s-121.17,-109.27 -201,-120c-36,-4.83 -73.07,-4.17 -107.68,-15.16c-92.64,-29.4 -147.77,-134.74 -242.35,-156.66c-60.12,-13.91 -118.59,10.18 -169.8,39.83c-44.45,25.74 -85.46,14.26 -131.72,33.45z"/>
  <path id="svg_2" stroke-width="2" stroke-miterlimit="10" stroke="#535461" fill="none" d="m194.68,283.83s-34.13,32.21 -70.76,33.17a71.09,71.09 0 0 0 -42.37,15.07a119.57,119.57 0 0 0 -15.84,15.07"/>
  <path id="svg_3" fill="#558b2f" d="m42.61,347.93c4.92,-2.5 23.7,-0.84 23.7,-0.84s-9.74,16.15 -14.66,18.65a10,10 0 1 1 -9,-17.81l-0.04,0z"/>
  <path id="svg_4" fill="#558b2f" d="m62.38,319.38c5.49,0.58 20.35,12.18 20.35,12.18s-17,8.26 -22.44,7.69a10,10 0 0 1 2.09,-19.87z"/>
  <path id="svg_5" fill="#558b2f" d="m109.26,296.37c4.44,3.27 11.42,20.79 11.42,20.79s-18.81,-1.43 -23.25,-4.69a10,10 0 0 1 11.83,-16.1z"/>
  <path id="svg_6" fill="#558b2f" d="m148.65,286.96c4.93,2.47 14.77,18.56 14.77,18.56s-18.78,1.77 -23.71,-0.7a10,10 0 1 1 8.94,-17.86z"/>
  <path id="svg_7" fill="#558b2f" d="m93.18,349.77c1.64,-5.27 -3.16,-23.51 -3.16,-23.51s-14.28,12.32 -15.92,17.59a10,10 0 1 0 19.08,5.92z"/>
  <path id="svg_8" fill="#558b2f" d="m139.11,338.14c0,-5.52 -10.05,-21.48 -10.05,-21.48s-9.94,16 -9.93,21.54a10,10 0 0 0 20,-0.06l-0.02,0z"/>
  <path id="svg_9" fill="#558b2f" d="m182.2,320.78c0.92,-5.44 -6.28,-22.87 -6.28,-22.87s-12.51,14.12 -13.42,19.56a10,10 0 0 0 19.7,3.32l0,-0.01z"/>
  <path id="svg_10" stroke-width="2" stroke-miterlimit="10" stroke="#535461" fill="none" d="m239.03,198.53s-41.11,-22.58 -53.33,-57.17a71.09,71.09 0 0 0 -27.37,-35.69a119.57,119.57 0 0 0 -19.24,-10.4"/>
  <path id="svg_11" fill="#558b2f" d="m131.29,73.52c3.89,3.91 8.08,22.3 8.08,22.3s-18.36,-4.3 -22.25,-8.22a10,10 0 0 1 14.17,-14.08z"/>
  <path id="svg_12" fill="#558b2f" d="m164.54,83.55c1.14,5.4 -5.33,23.11 -5.33,23.11s-13.07,-13.59 -14.21,-19a10,10 0 1 1 19.55,-4.12l-0.01,0.01z"/>
  <path id="svg_13" fill="#558b2f" d="m200.84,121.14c-1.74,5.23 -16.27,17.26 -16.27,17.26s-4.42,-18.33 -2.68,-23.57a10,10 0 0 1 19,6.31l-0.05,0z"/>
  <path id="svg_14" fill="#558b2f" d="m221.92,155.69c-0.83,5.45 -13.12,19.76 -13.12,19.76s-7.46,-17.32 -6.63,-22.77a10,10 0 1 1 19.75,3l0,0.01z"/>
  <path id="svg_15" fill="#558b2f" d="m145.08,122.21c5.52,-0.06 21.4,-10.24 21.4,-10.24s-16.11,-9.8 -21.63,-9.74a10,10 0 1 0 0.23,20l0,-0.02z"/>
  <path id="svg_16" fill="#558b2f" d="m170.24,162.35c5.24,-1.71 17.35,-16.17 17.35,-16.17s-18.31,-4.53 -23.55,-2.82a10,10 0 1 0 6.2,19l0,-0.01z"/>
  <path id="svg_17" fill="#558b2f" d="m200.04,198.01c5.46,-0.8 19.84,-13 19.84,-13s-17.28,-7.56 -22.73,-6.76a10,10 0 1 0 2.9,19.77l-0.01,-0.01z"/>
  <circle id="svg_18" fill="url(#60672ce7-bfbc-4a60-a482-eb57e060a9c7)" r="362" cy="384.41" cx="521.94"/>
  <circle id="svg_19" fill="#558b2f" r="356" cy="384.41" cx="521.94"/>
  <circle id="svg_20" fill="#dde1ec" r="283" cy="384.41" cx="521.94"/>
  <rect id="svg_21" opacity="0.3" fill="#535461" height="250" width="16" y="151.41" x="513.94"/>
  <g id="svg_22" opacity="0.1">
   <rect id="svg_23" height="20" width="226" y="378.41" x="538.94"/>
   <rect id="svg_24" transform="rotate(-62.36, -164.99, 624.63)" height="160.52" width="20" y="957.94" x="351.95999"/>
   <circle id="svg_25" r="30" cy="388.41" cx="521.94"/>
  </g>
  <rect id="svg_26" fill="#535461" height="20" width="226" y="374.41" x="538.94"/>
  <rect id="svg_27" fill="#535461" transform="rotate(27.64, 169.1, -261.59)" height="20" width="160.52" y="137.98" x="615.79001"/>
  <circle id="svg_28" fill="#535461" r="30" cy="384.41" cx="521.94"/>
  <g id="svg_29" opacity="0.1">
   <path id="svg_30" d="m260.92,418.41c0,-156.3 126.7,-283 283,-283a282.56,282.56 0 0 1 226.16,112.84c-48.16,-87.52 -141.16,-146.84 -248.16,-146.84c-156.3,0 -283,126.7 -283,283a281.74,281.74 0 0 0 56.87,170.16a281.71,281.71 0 0 1 -34.87,-136.16z"/>
  </g>
  <path id="svg_64" opacity="0.05" d="m730.21,249.23s-3.65,8.68 -1.83,11.42"/>
  <path id="svg_65" opacity="0.05" d="m584.5,246.49s1.83,8.68 0,11.42"/>
  <path id="svg_66" fill="#558b2f" d="m963.32,444.28s-41.84,41.84 -18.22,103.92s-40.48,165.32 -40.48,165.32s0.69,-0.1 2,-0.32c85.93,-15.17 128.62,-113.44 80.84,-186.45c-17.81,-27.15 -32.39,-58.99 -24.14,-82.47z"/>
  <path id="svg_67" opacity="0.1" d="m963.32,444.98s-41.84,41.84 -18.22,103.92s-40.48,165.31 -40.48,165.31s0.69,-0.1 2,-0.32c85.93,-15.17 128.62,-113.44 80.84,-186.45c-17.81,-27.14 -32.39,-58.98 -24.14,-82.46z"/>
  <path id="svg_68" stroke-miterlimit="10" stroke="#535461" fill="none" d="m963.32,444.28s-23.62,51.28 0,93.12s4,159.25 -58.71,176.12"/>
  <path id="svg_69" fill="#558b2f" d="m1037.84,613.5s-47.74,-7.6 -52.09,35.18s-91.83,48.71 -91.83,48.71l1.64,1.09c72.2,47.4 141.23,30.19 130.82,-32.75c-3.84,-23.39 -3.52,-46.89 11.46,-52.23z"/>
  <path id="svg_70" stroke-miterlimit="10" stroke="#535461" fill="none" d="m1037.84,613.5s-37.06,8.13 -34,41.83s-55,74.09 -109.88,42.07"/>
  <path id="svg_71" fill="#a8a8a8" d="m995.84,698.95s-37.6,-7.52 -47.63,-17.55s-55.15,-27.57 -60.16,-15s-67.68,55.15 -25.07,62.67s100.27,10 112.8,5s20.06,-35.12 20.06,-35.12z"/>
  <path id="svg_72" opacity="0.2" d="m862.98,724.38c42.62,7.52 100.27,10 112.8,5c9.55,-3.82 16.18,-22.16 18.8,-30.7l1.25,0.26s-7.52,30.08 -20.05,35.09s-70.19,2.51 -112.8,-5c-12.3,-2.17 -15.82,-7.27 -14.49,-13.72c1.04,4.21 5.33,7.45 14.49,9.07z"/>
 </g>
</svg>